<svg width="180" height="88" viewBox="0 0 180 88" fill="none" xmlns="http://www.w3.org/2000/svg">
<g clip-path="url(#clip0_633_763)">
<path d="M11.979 78.1814C15.2266 74.9338 18.508 71.6497 21.7583 68.3994C25.0316 71.6754 28.3224 74.9676 31.5714 78.2179C28.336 81.4533 25.0478 84.7428 21.7935 87.9985C18.5607 84.7631 15.2699 81.4723 11.9804 78.1814H11.979Z" fill="#301B44"/>
<path d="M31.5944 9.80767C28.3522 13.0512 25.0627 16.3421 21.8043 19.6005C18.5432 16.338 15.2523 13.0472 11.9993 9.79145C15.2415 6.54926 18.531 3.25841 21.7894 0C25.0492 3.26111 28.34 6.55197 31.5944 9.80767Z" fill="#301B44"/>
<path d="M0.581369 44.0223C3.84248 40.7598 7.13334 37.4676 10.3985 34.1997C11.7532 35.5558 13.1391 36.9416 14.5587 38.3613C12.7051 40.2136 10.823 42.0942 8.9018 44.0141C10.8068 45.9178 12.6862 47.7971 14.5195 49.6291C13.1066 51.042 11.7154 52.4346 10.3525 53.7975C7.11982 50.5634 3.82896 47.2712 0.580017 44.0209L0.581369 44.0223Z" fill="#301B44"/>
<path d="M21.8367 22.8008C25.0884 26.0538 28.3711 29.3392 31.6214 32.5895C30.2559 33.9564 28.8687 35.3436 27.4369 36.7754C25.6022 34.9421 23.7228 33.0641 21.8029 31.1456C21.3865 31.516 21.0255 31.9054 20.6483 32.2772C20.267 32.6544 19.8898 33.0343 19.5099 33.4143C19.1408 33.7834 18.7717 34.1511 18.4039 34.5202C18.024 34.8988 17.6454 35.2787 17.2655 35.6573C16.8883 36.0345 16.5097 36.4117 16.1744 36.747C14.7642 35.3355 13.3784 33.9497 12.0358 32.6071C15.2564 29.3852 18.5459 26.0943 21.8367 22.8035V22.8008Z" fill="#301B44"/>
<path d="M21.7921 56.8964C23.7147 54.9751 25.594 53.0972 27.4477 51.2449C28.866 52.6632 30.2505 54.049 31.6025 55.401C28.3481 58.6567 25.0573 61.9476 21.8043 65.2033C18.5553 61.953 15.2672 58.6635 12.0115 55.4078C13.3405 54.0787 14.7264 52.6929 16.1568 51.2625C17.9861 53.0904 19.8655 54.9697 21.7935 56.895L21.7921 56.8964Z" fill="#301B44"/>
<path d="M34.6824 44.0155C32.7666 42.0996 30.8859 40.2203 29.0377 38.3734C30.4587 36.9524 31.8445 35.5652 33.2939 34.1145C36.5591 37.3743 39.8526 40.6624 43.1192 43.9249C39.7661 47.2793 36.4847 50.562 33.2452 53.8029C31.8824 52.44 30.4911 51.0488 29.0674 49.6251C30.8886 47.8052 32.7598 45.9354 34.6811 44.0141L34.6824 44.0155Z" fill="#301B44"/>
<path d="M0.0310974 18.5229V1.09787C0.0608422 1.07759 0.0730105 1.06407 0.0865309 1.06136C0.100051 1.05866 0.11898 1.06001 0.128444 1.06677C0.197398 1.12221 0.269056 1.17494 0.33125 1.23713C3.17323 4.07776 6.01251 6.91974 8.94372 9.8496C5.99223 12.7727 3.05966 15.6782 0.12574 18.5838C0.0946431 18.5635 0.0621943 18.5432 0.0310974 18.5229Z" fill="#301B44"/>
<path d="M0.056784 23.9324C2.94744 26.8244 5.86648 29.7434 8.74767 32.626C5.89352 35.4815 2.97448 38.4019 0.0716564 41.306C-0.0135219 41.041 -0.0297463 24.3109 0.055432 23.9337L0.056784 23.9324Z" fill="#301B44"/>
<path d="M0.0108185 46.6467C2.97313 49.6104 5.88542 52.5227 8.80987 55.4485C8.67872 55.6797 0.711173 63.6905 0.104109 64.1772C0.0905886 64.1732 0.0757162 64.1718 0.0635479 64.1664C0.0513796 64.1597 0.0338031 64.1488 0.0324511 64.1394C0.0229868 63.992 0.0108185 63.8433 0.0108185 63.6959C0.0108185 58.0282 0.0108185 52.3604 0.0108185 46.6494V46.6467Z" fill="#301B44"/>
<path d="M34.7554 9.82252C37.6867 6.88995 40.6003 3.97631 43.5031 1.07349C43.5883 1.33984 43.6153 18.0361 43.4315 18.6391C40.5354 15.6971 37.6407 12.7551 34.7554 9.82252Z" fill="#301B44"/>
<path d="M34.7433 55.4253C37.6759 52.4927 40.5895 49.5764 43.5099 46.656C43.4991 46.6506 43.5139 46.656 43.5248 46.6641C43.5356 46.6722 43.5504 46.6857 43.5504 46.6979C43.5586 52.4278 43.5653 58.1564 43.5707 63.8863C43.5707 63.9729 43.5572 64.0594 43.5491 64.1527C43.2462 63.9972 35.3003 56.1148 34.7433 55.4253Z" fill="#301B44"/>
<path d="M43.5437 41.375C40.5976 38.4289 37.6853 35.5166 34.8122 32.6435C37.711 29.7434 40.6287 26.823 43.5667 23.885C43.5018 23.8499 43.5167 23.8553 43.5275 23.8647C43.5383 23.8742 43.5504 23.8877 43.5504 23.8999C43.5586 29.642 43.564 35.3855 43.5707 41.1276C43.5707 41.1992 43.5559 41.2695 43.5437 41.375Z" fill="#301B44"/>
<path d="M10.362 31.0075C7.49298 28.1371 4.58204 25.2248 1.65894 22.3017C1.64812 22.3247 1.65218 22.3098 1.66164 22.299C1.66976 22.2882 1.68328 22.2747 1.69409 22.2747C7.3064 22.2666 12.9187 22.2585 18.5324 22.2517C18.7108 22.2517 18.8893 22.2585 19.0678 22.2666C19.0894 22.2666 19.1097 22.299 19.088 22.2815C16.1825 25.1883 13.2729 28.0993 10.3634 31.0102L10.362 31.0075Z" fill="#301B44"/>
<path d="M33.2398 31.059C30.3235 28.1413 27.4098 25.2277 24.4813 22.2964C24.4678 22.3329 24.4719 22.3181 24.4786 22.3046C24.4854 22.2937 24.4975 22.2762 24.507 22.2762C30.2694 22.2667 36.0304 22.2586 41.7928 22.2532C41.8469 22.2532 41.901 22.2748 41.9618 22.2883C41.7793 22.5952 33.6643 30.7413 33.2398 31.059Z" fill="#301B44"/>
<path d="M21.7746 45.5137C23.1982 46.9387 24.5746 48.3151 25.905 49.6468C24.5287 51.0246 23.1361 52.4158 21.7786 53.7746C20.4617 52.4564 19.0772 51.0719 17.6454 49.6401C18.9785 48.3056 20.3711 46.9157 21.7732 45.5137H21.7746Z" fill="#301B44"/>
<path d="M11.9939 43.9831C13.3324 42.6433 14.7183 41.2574 16.0689 39.9067C17.4318 41.2709 18.8271 42.6649 20.1927 44.0304C18.8501 45.3717 17.4643 46.7562 16.1149 48.1055C14.7548 46.7453 13.3608 45.35 11.9939 43.9831Z" fill="#301B44"/>
<path d="M17.6238 38.3222C19.0245 36.9228 20.4009 35.5465 21.7854 34.1633C22.045 34.3053 25.3967 37.6043 25.9334 38.2492C24.5462 39.6364 23.1631 41.0209 21.7597 42.4243C21.5515 42.3148 18.2079 39.028 17.6238 38.3222Z" fill="#301B44"/>
<path d="M31.6268 44.0372C30.2721 45.3947 28.8957 46.7737 27.5153 48.1569C27.2422 47.9987 23.6214 44.405 23.3659 44.0426C24.7571 42.65 26.143 41.2642 27.4991 39.9067C28.8525 41.2615 30.2396 42.6487 31.6268 44.0372Z" fill="#301B44"/>
<path d="M121.9 48.7828C122.093 48.845 122.228 48.8748 122.353 48.9302C122.831 49.1411 123.344 49.3007 123.775 49.5846C125.211 50.5337 125.285 52.747 123.945 53.8286C123.468 54.2126 122.926 54.4709 122.34 54.6453C121.452 54.9089 120.541 55.0847 119.619 55.0968C116.739 55.1361 113.859 55.1442 110.979 55.1563C110.52 55.1577 110.475 55.0928 110.475 54.5641C110.475 51.5261 110.475 48.4881 110.475 45.4487C110.475 44.7484 110.471 44.0494 110.476 43.349C110.48 42.8893 110.541 42.8258 111.005 42.8258C113.313 42.8231 115.619 42.8095 117.927 42.8339C119.152 42.8474 120.373 42.9515 121.56 43.2976C122.131 43.4639 122.65 43.7222 123.137 44.0683C124.456 45.0079 124.617 47.6093 122.659 48.4556C122.428 48.5557 122.197 48.6557 121.902 48.7828H121.9ZM114.024 52.8646C114.132 52.8822 114.209 52.9052 114.285 52.9038C115.875 52.8809 117.465 52.8673 119.054 52.8214C119.593 52.8065 120.126 52.6997 120.621 52.455C121.076 52.2305 121.263 51.856 121.247 51.3693C121.23 50.8974 120.99 50.5675 120.566 50.3566C119.996 50.074 119.381 49.9888 118.762 49.9726C117.315 49.9348 115.868 49.9267 114.421 49.9104C114.297 49.9091 114.174 49.9321 114.024 49.9469V52.8633V52.8646ZM114 47.6917C114.112 47.7093 114.174 47.7282 114.235 47.7269C115.713 47.7093 117.19 47.7093 118.667 47.6593C119.102 47.6444 119.542 47.5146 119.962 47.3835C120.381 47.2523 120.589 46.9265 120.595 46.4749C120.602 46.0152 120.437 45.6448 119.996 45.4893C119.597 45.3487 119.173 45.2175 118.755 45.2013C117.278 45.1432 115.801 45.135 114.324 45.1107C114.22 45.1093 114.115 45.1418 113.998 45.1607V47.6917H114Z" fill="#301B44"/>
<path d="M118.57 86.0584C118.497 86.0908 118.444 86.1003 118.414 86.13C117.445 87.1116 116.222 87.6024 114.9 87.8133C112.717 88.1608 110.553 88.0418 108.458 87.2712C107.488 86.9156 106.628 86.3815 105.931 85.6082C104.902 84.467 104.535 83.0961 104.588 81.5967C104.673 79.1833 105.793 77.4189 107.983 76.3819C108.552 76.1115 109.169 75.9181 109.784 75.768C111.373 75.3827 112.988 75.3043 114.619 75.4179C115.655 75.4909 116.675 75.6315 117.665 75.9492C119.282 76.467 120.485 77.45 121.126 79.0562C121.161 79.1454 121.197 79.2333 121.225 79.3239C121.372 79.7849 121.309 79.8985 120.836 79.9512C120.03 80.0418 119.223 80.1216 118.415 80.2C118.026 80.2379 117.977 80.2149 117.839 79.8593C117.528 79.0575 116.951 78.5532 116.136 78.322C114.386 77.8272 112.622 77.8042 110.851 78.199C110.666 78.2409 110.484 78.3031 110.305 78.368C108.725 78.9359 107.925 80.2825 108.121 82.0158C108.259 83.2394 108.915 84.0993 109.988 84.6658C110.791 85.089 111.661 85.2634 112.553 85.3405C113.947 85.4608 115.318 85.3797 116.631 84.8294C117.078 84.6415 117.477 84.3873 117.792 84.0155C117.899 83.8884 117.983 83.741 118.122 83.5368C117.881 83.522 117.729 83.5057 117.576 83.5044C116.844 83.5017 116.112 83.5044 115.38 83.503C114.859 83.503 114.598 83.2344 114.597 82.6972C114.597 82.3944 114.588 82.0929 114.601 81.79C114.615 81.4845 114.705 81.3939 115.01 81.3831C115.375 81.3709 115.741 81.379 116.107 81.379C117.715 81.379 119.323 81.379 120.929 81.379C121.056 81.379 121.184 81.3763 121.31 81.3844C121.514 81.3979 121.631 81.5061 121.639 81.717C121.641 81.7968 121.643 81.8765 121.643 81.955C121.643 83.6883 121.643 85.4229 121.643 87.1562C121.643 87.236 121.643 87.3158 121.64 87.3942C121.635 87.6268 121.513 87.7471 121.283 87.7484C120.662 87.7511 120.042 87.7484 119.421 87.7484C119.186 87.7484 119.09 87.6011 119.025 87.405C118.876 86.9561 118.725 86.5073 118.571 86.0489L118.57 86.0584Z" fill="#301B44"/>
<path d="M73.8469 50.9163C72.8666 50.9163 71.977 50.9163 71.0874 50.9163C70.9603 50.9163 70.8332 50.9163 70.7061 50.9123C70.5033 50.9041 70.3627 50.8081 70.3586 50.5986C70.3478 50.1064 70.3492 49.6129 70.3559 49.1208C70.3586 48.9072 70.4925 48.8125 70.6993 48.8085C70.8102 48.8071 70.9224 48.8031 71.0333 48.8031C72.9261 48.8031 74.8203 48.8031 76.7132 48.8031C76.8241 48.8031 76.9363 48.8058 77.0471 48.8071C77.2594 48.8098 77.3676 48.9248 77.3838 49.1289C77.3933 49.2398 77.3933 49.3507 77.3933 49.4629C77.3933 51.1326 77.3933 52.8024 77.3933 54.4722C77.3933 54.5357 77.3946 54.5993 77.3933 54.6628C77.3743 55.086 77.3148 55.1495 76.8768 55.1563C76.3684 55.1644 75.8587 55.1631 75.349 55.1563C74.8947 55.1509 74.8839 55.1387 74.7379 54.7169C74.5932 54.3018 74.4539 53.8854 74.3133 53.473C74.2376 53.4933 74.1997 53.4919 74.1822 53.5095C73.1262 54.579 71.7877 55.063 70.3492 55.2672C68.3224 55.5524 66.3187 55.4105 64.3718 54.7358C63.3497 54.3816 62.4397 53.8421 61.7015 53.0404C60.9187 52.1913 60.4901 51.1773 60.3752 50.0402C60.2954 49.2479 60.313 48.4516 60.4996 47.6687C60.9822 45.6434 62.2815 44.3468 64.1676 43.5856C65.2533 43.1475 66.3958 42.9258 67.5558 42.8433C69.2094 42.727 70.8629 42.7473 72.4935 43.1069C73.7225 43.3787 74.8663 43.8276 75.7695 44.751C76.336 45.3297 76.7335 46.0111 76.9795 46.7804C77.1134 47.1969 77.0296 47.3253 76.582 47.3699C75.7749 47.4497 74.9677 47.5241 74.1592 47.5903C73.7319 47.6255 73.7198 47.6173 73.5589 47.2185C73.252 46.4559 72.7057 45.9489 71.9162 45.7542C71.2564 45.5906 70.5817 45.45 69.9057 45.3892C68.843 45.2932 67.7749 45.3297 66.727 45.5704C66.0213 45.7326 65.3628 45.999 64.8247 46.506C64.2298 47.0671 63.8851 47.7566 63.8688 48.5705C63.8594 49.0735 63.8824 49.5954 64.0067 50.0794C64.2366 50.9731 64.8491 51.591 65.6481 52.0317C66.3417 52.4144 67.0921 52.6145 67.8709 52.7024C69.1918 52.8511 70.5073 52.8538 71.7931 52.4522C72.2961 52.2954 72.7828 52.0993 73.1938 51.7573C73.448 51.5464 73.6752 51.3084 73.8469 50.9163Z" fill="#301B44"/>
<path d="M100.203 42.8231C101.772 42.7825 103.317 42.9394 104.799 43.4896C106.335 44.0602 107.575 44.9958 108.243 46.529C109.328 49.0235 108.835 52.6984 105.441 54.3654C104.43 54.863 103.356 55.1428 102.246 55.2753C100.417 55.4917 98.5946 55.4538 96.7936 55.0239C95.7472 54.7737 94.7696 54.3681 93.9043 53.7151C92.5699 52.7065 91.8546 51.3531 91.6897 49.705C91.6072 48.8775 91.664 48.0528 91.8912 47.2456C92.3657 45.5583 93.4338 44.3887 95.0238 43.683C96.2474 43.1408 97.544 42.9191 98.8663 42.8271C99.3098 42.796 99.756 42.8217 100.202 42.8217L100.203 42.8231ZM100.132 45.3487C99.2584 45.3365 98.2944 45.4122 97.3777 45.7759C95.3537 46.5777 94.8075 48.3462 95.2888 50.1146C95.6228 51.3382 96.5111 52.044 97.6711 52.4482C98.385 52.697 99.1286 52.7714 99.8763 52.7849C100.977 52.8052 102.071 52.7416 103.094 52.2738C104.015 51.852 104.698 51.1922 105.045 50.2282C105.727 48.3353 104.802 46.3911 102.91 45.7205C102.044 45.4136 101.143 45.3487 100.132 45.35V45.3487Z" fill="#301B44"/>
<path d="M133.067 71.6552C131.325 71.6728 129.694 71.4592 128.128 70.8562C127.409 70.579 126.753 70.1977 126.215 69.6353C125.68 69.0755 125.37 68.409 125.291 67.6397C125.24 67.1584 125.323 67.0678 125.795 67.0651C126.653 67.0597 127.513 67.0718 128.372 67.0597C128.654 67.0556 128.819 67.1489 128.891 67.4301C129.036 67.9953 129.432 68.3495 129.928 68.6091C130.515 68.916 131.146 69.0783 131.799 69.131C132.767 69.2094 133.737 69.2405 134.701 69.0661C135.162 68.9836 135.589 68.8173 135.955 68.5199C136.399 68.1602 136.395 67.6992 135.911 67.3869C135.621 67.2003 135.294 67.0407 134.962 66.9596C134.068 66.7406 133.162 66.5729 132.262 66.3796C131.098 66.1295 129.928 65.8996 128.775 65.6116C128.08 65.4372 127.428 65.1303 126.86 64.6747C125.888 63.8932 125.55 62.7615 125.958 61.6515C126.188 61.0255 126.628 60.578 127.183 60.2373C127.897 59.7992 128.684 59.5478 129.499 59.3896C131.902 58.9258 134.3 58.8974 136.684 59.5234C137.43 59.7195 138.109 60.0575 138.712 60.5456C139.534 61.2094 139.901 62.0963 139.959 63.1252C139.983 63.5525 139.909 63.6228 139.468 63.6255C138.641 63.6323 137.813 63.6309 136.987 63.6255C136.58 63.6228 136.507 63.5714 136.483 63.1672C136.453 62.671 136.196 62.3397 135.801 62.0855C135.392 61.8219 134.937 61.6502 134.459 61.6353C133.172 61.5947 131.882 61.5447 130.608 61.8097C130.378 61.8584 130.144 61.9354 129.939 62.0477C129.474 62.3005 129.412 62.817 129.832 63.1442C130.101 63.3537 130.428 63.5281 130.755 63.616C131.506 63.8148 132.272 63.9581 133.035 64.1095C134.328 64.3664 135.631 64.5746 136.911 64.8788C137.536 65.0276 138.148 65.2953 138.716 65.6008C139.457 65.9983 139.979 66.6108 140.112 67.4856C140.255 68.4266 140.03 69.2513 139.342 69.9287C138.904 70.36 138.374 70.648 137.809 70.8738C136.385 71.4416 134.897 71.6417 133.376 71.6593C133.249 71.6606 133.121 71.6593 133.07 71.6593L133.067 71.6552Z" fill="#301B44"/>
<path d="M117.215 71.6564C115.273 71.6686 113.564 71.4496 111.935 70.7722C111.343 70.5261 110.802 70.1976 110.338 69.7501C109.73 69.1633 109.382 68.4521 109.295 67.6112C109.25 67.1785 109.338 67.0676 109.779 67.0649C110.638 67.0595 111.497 67.0595 112.357 67.0649C112.756 67.0676 112.775 67.073 112.898 67.457C113.069 67.9938 113.437 68.3453 113.917 68.5995C114.488 68.901 115.102 69.0659 115.74 69.1227C116.74 69.2133 117.742 69.2431 118.736 69.0605C119.212 68.974 119.654 68.7955 120.02 68.4697C120.385 68.1439 120.403 67.7477 120.007 67.4624C119.704 67.2434 119.348 67.0582 118.989 66.9662C118.096 66.7391 117.189 66.5755 116.289 66.3822C115.108 66.128 113.924 65.8954 112.753 65.602C112.091 65.4357 111.469 65.1383 110.918 64.7137C109.38 63.5253 109.424 61.4607 111.02 60.3494C111.793 59.8113 112.676 59.5395 113.585 59.3691C115.844 58.9432 118.104 58.9122 120.357 59.4327C121.203 59.6287 121.989 59.9613 122.673 60.5089C123.525 61.1903 123.93 62.0867 123.952 63.1643C123.96 63.551 123.901 63.6186 123.522 63.6226C122.664 63.6308 121.804 63.6308 120.944 63.6226C120.587 63.6199 120.531 63.5767 120.504 63.2103C120.461 62.6208 120.147 62.2219 119.636 61.9961C119.263 61.8312 118.859 61.6595 118.461 61.6419C117.192 61.5851 115.915 61.5432 114.657 61.8015C114.44 61.8461 114.221 61.9083 114.024 62.0029C113.463 62.272 113.405 62.8506 113.917 63.213C114.173 63.3928 114.472 63.5429 114.772 63.6186C115.51 63.8065 116.255 63.9728 117.007 64.0986C118.542 64.3568 120.096 64.538 121.568 65.0734C122.085 65.2613 122.593 65.5141 123.05 65.8197C124.554 66.8216 124.443 69.043 123.229 70.0408C122.472 70.6627 121.591 71.0048 120.661 71.2481C119.469 71.5604 118.252 71.674 117.215 71.6578V71.6564Z" fill="#301B44"/>
<path d="M89.7414 66.2944H82.4134C82.4053 66.4715 82.3904 66.6391 82.3904 66.8081C82.3891 68.0966 82.3904 69.3851 82.3904 70.6736C82.3904 70.7845 82.3958 70.8967 82.3877 71.0076C82.3674 71.3415 82.2876 71.4294 81.955 71.4362C81.4467 71.4456 80.937 71.4389 80.4272 71.4389C80.0297 71.4389 79.6309 71.447 79.2334 71.4362C78.9022 71.4267 78.8197 71.3388 78.798 71.0062C78.7913 70.8953 78.7953 70.7831 78.7953 70.6723C78.7953 67.0772 78.7953 63.4821 78.7953 59.8884C78.7953 59.8086 78.794 59.7289 78.7953 59.6505C78.8061 59.184 78.8602 59.1191 79.3159 59.1164C80.1744 59.1096 81.0343 59.1096 81.8942 59.1164C82.3296 59.1191 82.3863 59.1772 82.3877 59.6207C82.3931 60.9092 82.3891 62.1977 82.3904 63.4862C82.3904 63.6592 82.3904 63.8309 82.3904 63.9918C82.7825 64.0959 89.1357 64.1162 89.7157 64.0175C89.7238 63.862 89.7414 63.6944 89.7414 63.5267C89.7441 62.3018 89.7414 61.0769 89.7428 59.8519C89.7428 59.7248 89.7455 59.5977 89.7468 59.4706C89.7468 59.2354 89.8699 59.1218 90.1011 59.1191C90.2119 59.1178 90.3242 59.115 90.435 59.115C91.1354 59.115 91.8357 59.115 92.5347 59.115C93.0332 59.115 93.2824 59.3575 93.2824 59.8424C93.2824 63.2942 93.2824 66.7459 93.2824 70.1977C93.2824 70.4208 93.2838 70.6425 93.2824 70.8656C93.277 71.3983 93.2391 71.4389 92.7132 71.4416C91.9331 71.4443 91.1543 71.4443 90.3742 71.4416C89.7739 71.4416 89.7441 71.4132 89.7428 70.8291C89.7401 69.5095 89.7428 68.1886 89.7428 66.869V66.2984L89.7414 66.2944Z" fill="#301B44"/>
<path d="M75.2057 63.9919C74.7608 63.9919 74.3147 63.9851 73.8699 63.9946C73.6103 64 73.4548 63.9067 73.3912 63.6403C73.1371 62.5763 72.3583 62.0422 71.374 61.8421C69.738 61.5095 68.0858 61.4906 66.4539 61.9151C65.8023 62.0842 65.2006 62.3735 64.7044 62.8481C64.2271 63.305 63.9594 63.8634 63.8526 64.5138C63.7607 65.0722 63.785 65.6278 63.9013 66.1727C64.1271 67.2368 64.7585 67.9966 65.7211 68.4901C66.3377 68.8065 67.0015 68.9755 67.6843 69.0431C68.7808 69.1499 69.8759 69.1377 70.9576 68.8808C71.4876 68.7551 71.9878 68.5577 72.4462 68.2616C72.9153 67.9588 73.2736 67.5599 73.4291 67.0164C73.5089 66.7379 73.663 66.6297 73.9402 66.6311C74.8474 66.6365 75.7532 66.6243 76.6605 66.6351C77.131 66.6405 77.2094 66.769 77.0566 67.2395C76.6699 68.4333 75.9263 69.3635 74.9042 70.0747C73.7441 70.8819 72.434 71.3145 71.0495 71.5011C69.0769 71.7674 67.1151 71.7093 65.1871 71.1509C63.9162 70.7832 62.7602 70.2099 61.8151 69.2581C60.5861 68.0182 60.1399 66.4986 60.3049 64.8058C60.5631 62.1626 62.1125 60.5428 64.5543 59.714C66.3566 59.1029 68.2224 58.9691 70.1126 59.0921C71.1306 59.1583 72.1365 59.303 73.11 59.6207C74.2998 60.0088 75.3395 60.6226 76.1183 61.6285C76.5428 62.1774 76.8376 62.7886 77.0052 63.4605C77.1053 63.8634 77.0133 63.9824 76.5915 63.9905C76.1305 63.9986 75.6694 63.9919 75.207 63.9919H75.2057Z" fill="#301B44"/>
<path d="M138.545 79.4577C138.545 80.5231 138.562 81.5886 138.54 82.654C138.496 84.947 137.333 86.5722 135.177 87.3645C134.061 87.7741 132.901 87.9404 131.717 87.9715C130.2 88.0121 128.695 87.9445 127.239 87.4577C126.242 87.1251 125.35 86.6208 124.662 85.8056C123.957 84.9727 123.6 83.9965 123.563 82.919C123.525 81.8711 123.546 80.8206 123.544 79.7701C123.542 78.514 123.541 77.258 123.544 76.0006C123.545 75.4719 123.583 75.4354 124.118 75.4327C124.993 75.4287 125.868 75.4287 126.743 75.4327C127.244 75.4354 127.29 75.4787 127.29 75.9776C127.293 78.0611 127.29 80.1446 127.294 82.2281C127.294 82.4822 127.315 82.7364 127.339 82.9893C127.446 84.1006 128.087 84.7807 129.109 85.1255C130.093 85.4581 131.111 85.4581 132.129 85.3377C132.505 85.2931 132.886 85.2134 133.24 85.0836C134.083 84.7739 134.602 84.1669 134.739 83.2691C134.789 82.9406 134.814 82.6053 134.816 82.2727C134.822 80.2365 134.82 78.2017 134.82 76.1655C134.82 76.0384 134.822 75.9114 134.822 75.7843C134.822 75.545 134.951 75.4381 135.179 75.4354C135.433 75.4327 135.688 75.4314 135.943 75.4314C136.611 75.4314 137.279 75.4287 137.948 75.4314C138.515 75.4341 138.549 75.4665 138.549 76.0195C138.551 77.1647 138.549 78.3099 138.549 79.455C138.546 79.455 138.545 79.455 138.542 79.455L138.545 79.4577Z" fill="#301B44"/>
<path d="M78.337 77.8151V80.3326C78.5317 80.3408 78.702 80.3556 78.871 80.3556C80.7003 80.357 82.531 80.3556 84.3603 80.3556C84.4874 80.3556 84.6158 80.3489 84.7416 80.361C85.0458 80.3908 85.1377 80.476 85.1445 80.7775C85.1553 81.2696 85.1567 81.7645 85.1445 82.2566C85.1364 82.5581 85.0431 82.6365 84.7321 82.6649C84.6064 82.6757 84.4779 82.669 84.3508 82.6703C82.5364 82.6703 80.7233 82.6703 78.9089 82.6703H78.3275C78.2964 83.6208 78.3045 84.5294 78.3235 85.4893C78.5425 85.4893 78.7128 85.4893 78.8846 85.4893C81.5102 85.4893 84.1359 85.4893 86.7602 85.4893C86.8873 85.4893 87.0144 85.4893 87.1414 85.492C87.3753 85.4947 87.4997 85.6259 87.5038 85.8476C87.5119 86.3722 87.5119 86.8968 87.5011 87.4214C87.4957 87.6485 87.3578 87.7634 87.1266 87.7594C87.0306 87.758 86.9359 87.7594 86.8399 87.7594C83.0529 87.7594 79.2658 87.7594 75.4788 87.7594C75.3679 87.7594 75.2557 87.7594 75.1448 87.7567C74.9123 87.7486 74.8014 87.6147 74.7879 87.393C74.7811 87.2821 74.7838 87.1699 74.7838 87.059C74.7838 83.4166 74.7838 79.7743 74.7838 76.1319C74.7838 75.4491 74.7987 75.4329 75.4761 75.4329C79.1523 75.4329 82.8271 75.4329 86.5033 75.4329C86.6141 75.4329 86.7264 75.4356 86.8372 75.4369C87.0698 75.4369 87.1955 75.5518 87.1969 75.7857C87.2009 76.3428 87.2009 76.8985 87.1982 77.4555C87.1982 77.6881 87.0657 77.8016 86.8399 77.8097C86.7128 77.8138 86.5857 77.8138 86.4587 77.8138C83.9601 77.8138 81.4629 77.8138 78.9643 77.8138C78.775 77.8138 78.5858 77.8138 78.337 77.8138V77.8151Z" fill="#301B44"/>
<path d="M144.284 77.8151V80.3326C144.465 80.3407 144.634 80.3556 144.802 80.3556C146.599 80.3569 148.397 80.3556 150.194 80.3556C150.305 80.3556 150.417 80.3529 150.528 80.3556C151.016 80.3691 151.066 80.4191 151.07 80.9167C151.074 81.3615 151.078 81.8077 151.066 82.2525C151.056 82.5702 150.985 82.6351 150.666 82.6635C150.54 82.6743 150.411 82.6676 150.284 82.6676C148.487 82.6676 146.689 82.6676 144.892 82.6676C144.704 82.6676 144.516 82.6676 144.292 82.6676V85.4717C144.461 85.4771 144.644 85.4866 144.827 85.4866C147.421 85.4866 150.012 85.4866 152.606 85.4866C152.702 85.4866 152.796 85.4866 152.892 85.4866C153.383 85.4947 153.435 85.5434 153.439 86.0396C153.443 86.4681 153.447 86.8981 153.436 87.3267C153.428 87.6688 153.352 87.7364 153.009 87.7539C152.914 87.7593 152.818 87.7553 152.722 87.7553C148.969 87.7553 145.214 87.7553 141.461 87.7553C141.445 87.7553 141.428 87.7553 141.414 87.7553C140.738 87.7539 140.732 87.7485 140.732 87.0495C140.732 83.9331 140.732 80.8166 140.732 77.7002C140.732 77.1432 140.729 76.5875 140.732 76.0304C140.735 75.4626 140.765 75.4301 141.32 75.4288C142.64 75.4261 143.961 75.4288 145.28 75.4288C147.634 75.4288 149.988 75.4288 152.342 75.4288C152.469 75.4288 152.596 75.4234 152.723 75.4315C153.051 75.4518 153.132 75.5126 153.138 75.8222C153.152 76.363 153.142 76.9038 153.141 77.4433C153.141 77.6786 153.007 77.7894 152.784 77.8029C152.641 77.8111 152.498 77.8084 152.356 77.8084C149.875 77.8084 147.394 77.8084 144.911 77.8084C144.721 77.8084 144.531 77.8084 144.281 77.8084L144.284 77.8151Z" fill="#301B44"/>
<path d="M99.2151 61.4932V64.0107C99.3936 64.0188 99.5626 64.0337 99.7303 64.0337C101.527 64.035 103.325 64.0337 105.122 64.0337C105.233 64.0337 105.345 64.0309 105.456 64.0337C105.944 64.0472 105.996 64.0972 106.001 64.5934C106.005 65.0382 106.009 65.4844 105.997 65.9292C105.987 66.2483 105.917 66.3132 105.599 66.3429C105.474 66.3551 105.345 66.347 105.218 66.347C103.421 66.347 101.623 66.347 99.8263 66.347C99.6383 66.347 99.449 66.347 99.2246 66.347V69.1511C99.3909 69.1565 99.5734 69.166 99.7573 69.166C102.334 69.166 104.911 69.166 107.487 69.166C107.583 69.166 107.678 69.166 107.774 69.166C108.329 69.1714 108.367 69.2079 108.371 69.7649C108.374 70.1787 108.379 70.5924 108.368 71.0048C108.36 71.3482 108.285 71.4158 107.943 71.4347C107.848 71.4401 107.752 71.4361 107.656 71.4361C103.903 71.4361 100.148 71.4361 96.3948 71.4361C96.3312 71.4361 96.2677 71.4361 96.2041 71.4361C95.7174 71.4266 95.6647 71.3806 95.6647 70.8763C95.662 68.014 95.6647 65.1531 95.6647 62.2909C95.6647 61.4486 95.6647 60.6049 95.6647 59.7626C95.6647 59.1312 95.6836 59.1109 96.2988 59.1095C97.54 59.1068 98.7798 59.1095 100.021 59.1095C102.438 59.1095 104.856 59.1095 107.273 59.1095C107.417 59.1095 107.56 59.1028 107.702 59.1149C107.989 59.1393 108.064 59.2055 108.072 59.5016C108.086 60.0424 108.076 60.5833 108.075 61.1227C108.075 61.3566 107.944 61.4715 107.721 61.4851C107.577 61.4945 107.434 61.4905 107.292 61.4905C104.795 61.4905 102.298 61.4905 99.8006 61.4905C99.614 61.4905 99.4274 61.4905 99.2165 61.4905L99.2151 61.4932Z" fill="#301B44"/>
<path d="M136.707 51.8586C136.548 51.8505 136.437 51.8411 136.327 51.8411C134.561 51.8411 132.797 51.8478 131.031 51.833C130.714 51.8302 130.546 51.9181 130.426 52.2223C130.098 53.0484 129.718 53.8556 129.395 54.683C129.259 55.0305 129.074 55.1779 128.694 55.1671C127.851 55.1441 127.008 55.163 126.165 55.159C125.524 55.1563 125.446 55.0359 125.706 54.46C126.463 52.7794 127.22 51.1002 127.978 49.4209C128.892 47.3942 129.816 45.3702 130.715 43.3368C130.877 42.969 131.075 42.8054 131.496 42.8135C132.911 42.8392 134.328 42.8338 135.742 42.8162C136.096 42.8122 136.291 42.9311 136.438 43.2516C138.174 47.017 139.92 50.777 141.662 54.5397C141.703 54.6263 141.745 54.7141 141.766 54.8047C141.803 54.9683 141.739 55.0927 141.57 55.1279C141.447 55.1536 141.318 55.159 141.192 55.159C140.333 55.1617 139.473 55.1441 138.616 55.1684C138.235 55.1792 138.046 55.0332 137.91 54.6871C137.604 53.9029 137.26 53.135 136.93 52.3602C136.863 52.2007 136.788 52.0425 136.707 51.86V51.8586ZM135.682 49.6021C135.542 49.0126 133.839 45.1066 133.619 44.8416C133.208 45.5554 131.68 49.2546 131.659 49.6021H135.684H135.682Z" fill="#301B44"/>
<path d="M99.372 84.44H93.2811C93.2175 84.5739 93.1458 84.7118 93.085 84.8551C92.7294 85.688 92.3644 86.5181 92.0264 87.3577C91.9087 87.6511 91.7424 87.7728 91.4207 87.7661C90.5297 87.7485 89.6387 87.7607 88.7477 87.7593C88.6841 87.7593 88.6192 87.7634 88.557 87.7552C88.2704 87.7187 88.1771 87.5714 88.2718 87.2901C88.3164 87.1549 88.384 87.0278 88.4435 86.8967C90.0903 83.2449 91.7438 79.5971 93.3771 75.9398C93.5434 75.5666 93.7421 75.4166 94.1585 75.4233C95.5741 75.4477 96.991 75.4449 98.4066 75.4233C98.7825 75.4179 98.9704 75.5504 99.1273 75.8898C100.84 79.616 102.568 83.3354 104.292 87.0562C104.562 87.6417 104.489 87.7552 103.854 87.7579C102.979 87.7607 102.103 87.7485 101.228 87.7647C100.912 87.7701 100.739 87.6619 100.617 87.3631C100.222 86.3924 99.7992 85.4324 99.3733 84.4373L99.372 84.44ZM98.339 82.2173C98.2403 81.6778 96.5043 77.6934 96.2704 77.4433C95.7837 78.3478 94.3397 81.8522 94.3086 82.2173H98.339Z" fill="#301B44"/>
<path d="M146.732 52.7917C146.985 52.7917 147.173 52.7917 147.361 52.7917C149.637 52.7917 151.912 52.7917 154.188 52.7917C154.919 52.7917 154.943 52.816 154.945 53.5339C154.945 53.9152 154.953 54.2978 154.942 54.6791C154.931 55.0726 154.857 55.1375 154.455 55.1577C154.361 55.1618 154.265 55.1591 154.169 55.1591C150.763 55.1591 147.358 55.1591 143.953 55.1591C143.163 55.1591 143.162 55.1564 143.162 54.3587C143.162 50.7798 143.162 47.201 143.162 43.6222C143.162 43.5897 143.162 43.5586 143.162 43.5262C143.164 42.861 143.201 42.8231 143.861 42.8231C144.608 42.8231 145.356 42.8218 146.104 42.8231C146.669 42.8245 146.731 42.884 146.731 43.4545C146.732 46.3492 146.731 49.2439 146.731 52.14V52.7917H146.732Z" fill="#301B44"/>
<path d="M83.1367 52.7915H83.7857C86.0138 52.7915 88.2406 52.7915 90.4688 52.7915C90.6121 52.7915 90.7554 52.7861 90.8988 52.7956C91.2584 52.8199 91.3368 52.8956 91.3449 53.2688C91.3557 53.7461 91.3571 54.2233 91.3449 54.7006C91.3355 55.0711 91.2597 55.1346 90.8866 55.1576C90.7919 55.163 90.6959 55.1603 90.5999 55.1603C87.1793 55.1603 83.7573 55.1603 80.3366 55.1603C79.5781 55.1603 79.5673 55.1481 79.5673 54.3869C79.5673 50.7919 79.5673 47.1968 79.5673 43.6017C79.5673 43.5057 79.5646 43.4111 79.5673 43.3151C79.5849 42.9257 79.6687 42.8284 80.0473 42.8257C80.9221 42.8176 81.7982 42.8176 82.673 42.8257C83.0258 42.8284 83.1137 42.9271 83.1354 43.284C83.1435 43.4111 83.1367 43.5382 83.1381 43.6653C83.1381 46.4964 83.1381 49.3276 83.1381 52.1588C83.1381 52.3467 83.1381 52.536 83.1381 52.7902L83.1367 52.7915Z" fill="#301B44"/>
<path d="M65.1222 85.3892C65.3561 85.3892 65.5264 85.3892 65.6968 85.3892C68.002 85.3892 70.3072 85.3892 72.6125 85.3892C72.7396 85.3892 72.8667 85.3892 72.9937 85.3933C73.2006 85.4027 73.3236 85.5096 73.3263 85.7191C73.3318 86.291 73.3318 86.8629 73.3263 87.4349C73.3236 87.6458 73.1925 87.7472 72.9883 87.7553C72.8775 87.7593 72.7652 87.7593 72.6544 87.7593C69.1891 87.7593 65.7225 87.7593 62.2572 87.7593C62.1775 87.7593 62.0977 87.7621 62.0193 87.7593C61.6745 87.7404 61.6055 87.6742 61.5866 87.3348C61.5812 87.2402 61.5853 87.1442 61.5853 87.0482C61.5853 83.4085 61.5853 79.7688 61.5853 76.1305C61.5853 75.4409 61.5893 75.4355 62.2694 75.4342C63.0319 75.4342 63.7958 75.4301 64.5584 75.4342C65.087 75.4369 65.1222 75.4734 65.1235 76.0088C65.1249 78.917 65.1235 81.8253 65.1235 84.7335V85.3879L65.1222 85.3892Z" fill="#301B44"/>
<path d="M93.9003 0.196045C94.5425 0.335305 95.1834 0.473212 95.8256 0.615176C95.9797 0.648977 96.1325 0.69089 96.3258 0.740916C96.2826 1.46426 96.0081 2.10377 95.7918 2.80683C95.4957 2.77979 95.2185 2.78519 94.9589 2.72435C93.834 2.46071 92.6929 2.44043 91.5531 2.50803C90.9921 2.54183 90.4201 2.66216 89.8861 2.83928C89.1262 3.09211 88.626 3.66402 88.4137 4.43333C88.1866 5.25807 88.1717 6.10039 88.3691 6.94C88.5638 7.77151 89.1019 8.32314 89.882 8.56109C90.5053 8.75173 91.18 8.88423 91.8276 8.86666C93.2594 8.8288 94.6872 8.68007 96.2136 8.56921C96.3637 9.11408 96.5367 9.74277 96.7274 10.4404C96.2447 10.5756 95.7972 10.7406 95.3361 10.8231C93.7353 11.1124 92.1183 11.2422 90.4945 11.1029C89.471 11.015 88.4678 10.8244 87.5322 10.3417C86.6818 9.90367 86.0436 9.28038 85.684 8.40561C84.916 6.53169 84.9647 4.65641 85.8543 2.84063C86.4424 1.64137 87.5011 0.980226 88.7544 0.620584C89.3196 0.45834 89.8969 0.336657 90.4675 0.196045C91.6099 0.196045 92.7538 0.196045 93.8962 0.196045H93.9003Z" fill="#4F4D50"/>
<path d="M62.7669 30.7426H60.3725V20.2806C60.5672 20.2616 60.7416 20.2319 60.9174 20.2319C66.3782 20.2292 71.8405 20.2427 77.3013 20.2224C78.6939 20.217 80.027 21.0688 80.4516 22.3181C80.5746 22.6791 80.653 23.0739 80.6557 23.4538C80.6747 25.6928 80.6665 27.9304 80.6625 30.1694C80.6625 30.3478 80.6287 30.5263 80.6071 30.7426H78.1355C78.1153 30.456 78.0815 30.1924 78.0801 29.9287C78.0747 28.1467 78.0774 26.3647 78.0774 24.5841C78.0774 24.3326 78.0815 24.0811 78.0612 23.831C77.9936 22.9468 77.3649 22.2654 76.4779 22.237C75.0853 22.1924 73.69 22.2126 72.2961 22.2248C71.8891 22.2289 71.7769 22.3614 71.7323 22.7616C71.712 22.9427 71.7215 23.1266 71.7215 23.3091C71.7215 25.5021 71.7215 27.6951 71.7188 29.8881C71.7188 30.1558 71.6944 30.4236 71.6796 30.7372H69.2378C69.2229 30.4749 69.1959 30.2126 69.1959 29.949C69.1918 27.779 69.1945 25.609 69.1932 23.4389C69.1932 23.2564 69.1999 23.0725 69.1878 22.8914C69.1553 22.3708 69.0377 22.2275 68.528 22.2235C66.8366 22.2099 65.1465 22.2086 63.4551 22.2235C62.8873 22.2289 62.7696 22.3925 62.7683 23.082C62.7629 25.344 62.7656 27.6046 62.7656 29.8665C62.7656 30.1356 62.7656 30.4046 62.7656 30.7453L62.7669 30.7426Z" fill="#E21D39"/>
<path d="M148.381 20.3413C148.107 20.9078 147.861 21.4892 147.542 22.0273C147.463 22.1611 147.146 22.2031 146.937 22.2058C145.658 22.222 144.377 22.2098 143.098 22.2179C142.826 22.2193 142.54 22.2193 142.286 22.3004C141.514 22.5465 141.035 23.0954 141.011 23.9066C140.967 25.3208 140.984 26.7391 140.998 28.1547C141.004 28.6225 141.204 28.7861 141.688 28.8294C141.825 28.8415 141.962 28.8361 142.099 28.8361C144.361 28.8361 146.624 28.8375 148.886 28.8361C149.132 28.8361 149.378 28.8132 149.696 28.7983C149.769 27.3895 149.722 26.028 149.73 24.6678C149.738 23.2968 149.731 21.9272 149.731 20.5563V16.4055H152.176C152.199 16.6191 152.242 16.8355 152.242 17.0518C152.246 21.4148 152.246 25.7778 152.242 30.1409C152.242 30.3193 152.211 30.4978 152.188 30.7452C151.924 30.7601 151.682 30.7871 151.439 30.7871C147.874 30.7898 144.31 30.7871 140.744 30.7898C140.308 30.7898 139.88 30.7763 139.488 30.5357C138.881 30.1625 138.504 29.6568 138.503 28.924C138.499 27.0285 138.5 25.1316 138.503 23.236C138.504 21.9475 139.583 20.3616 141.385 20.275C143.642 20.1669 145.908 20.248 148.17 20.2494C148.209 20.2494 148.248 20.2832 148.379 20.3454L148.381 20.3413Z" fill="#E21D39"/>
<path d="M176.591 28.8134C176.607 28.5375 176.629 28.3374 176.63 28.136C176.633 26.857 176.637 25.5779 176.63 24.2976C176.623 22.9415 175.916 22.2276 174.56 22.2235C172.275 22.2154 169.989 22.2208 167.704 22.2208C167.459 22.2208 167.216 22.2208 166.841 22.2208C167.183 21.4934 167.47 20.8864 167.759 20.2712C167.912 20.2563 168.047 20.2306 168.181 20.2306C170.764 20.2306 173.346 20.2103 175.928 20.2401C177.344 20.2563 178.354 20.9729 178.912 22.2654C179.07 22.6318 179.139 23.0618 179.143 23.4633C179.165 25.7253 179.156 27.9859 179.152 30.2479C179.152 30.402 179.111 30.5561 179.087 30.7305C178.904 30.7495 178.749 30.7806 178.593 30.7806C174.776 30.7833 170.96 30.7806 167.144 30.7846C166.72 30.7846 166.329 30.7022 165.977 30.4601C165.415 30.0735 165.084 29.5556 165.08 28.858C165.076 28.0359 165.066 27.2125 165.08 26.3905C165.099 25.2494 165.826 24.5166 166.976 24.5031C168.439 24.4855 169.902 24.4977 171.364 24.4977C172.048 24.4977 172.732 24.4977 173.535 24.4977C173.362 24.8952 173.208 25.2129 173.085 25.5414C172.967 25.8592 172.739 25.9146 172.437 25.9119C171.18 25.9024 169.924 25.9078 168.667 25.9092C167.902 25.9092 167.52 26.2878 167.519 27.0449C167.519 27.4099 167.511 27.7763 167.521 28.1414C167.539 28.6754 167.68 28.8134 168.22 28.8499C168.311 28.8566 168.403 28.8526 168.495 28.8526C170.964 28.8526 173.431 28.8526 175.9 28.8512C176.101 28.8512 176.304 28.8282 176.592 28.8107L176.591 28.8134Z" fill="#E21D39"/>
<path d="M94.5993 28.816C94.5993 28.2427 94.5993 27.7654 94.5993 27.2882C94.5993 26.2836 94.5547 25.275 94.6101 24.2731C94.6791 23.032 93.7813 22.1883 92.5226 22.2099C90.2376 22.2478 87.9513 22.2207 85.6664 22.2207C85.4244 22.2207 85.1823 22.2207 84.8389 22.2207C85.1039 21.6272 85.3202 21.1567 85.5231 20.6808C85.665 20.3482 85.8813 20.213 86.2613 20.2197C87.5173 20.2441 88.7747 20.2278 90.0321 20.2292C91.2895 20.2292 92.5455 20.2184 93.8029 20.2332C95.7445 20.2576 97.1208 21.6326 97.1343 23.5728C97.1492 25.7658 97.1398 27.9588 97.1357 30.1518C97.1357 30.3303 97.1073 30.5074 97.0897 30.7223C96.8869 30.7453 96.7112 30.7818 96.5367 30.7818C92.7429 30.7845 88.9491 30.7818 85.1553 30.7859C84.2697 30.7859 83.6099 30.4276 83.2341 29.6191C83.1313 29.3987 83.0826 29.1378 83.0772 28.893C83.0583 28.025 83.0542 27.157 83.0732 26.289C83.0948 25.279 83.7816 24.5287 84.7821 24.5151C86.9522 24.484 89.1235 24.507 91.2949 24.5111C91.3341 24.5111 91.372 24.5462 91.4761 24.5963C91.3152 24.9613 91.1624 25.3345 90.9893 25.6968C90.865 25.9578 90.6081 25.9077 90.385 25.9077C89.3115 25.9118 88.2366 25.9091 87.1631 25.9091C86.8886 25.9091 86.6142 25.9064 86.3397 25.9091C85.5758 25.9213 85.4771 26.02 85.469 26.7879C85.4649 27.2449 85.4568 27.7019 85.473 28.1589C85.4893 28.6334 85.6623 28.8011 86.1396 28.8457C86.2761 28.8579 86.4141 28.8525 86.5506 28.8525C88.9505 28.8525 91.3503 28.8525 93.7502 28.8525C93.9963 28.8525 94.2423 28.8308 94.5966 28.8146L94.5993 28.816Z" fill="#E21D39"/>
<path d="M98.577 0.383898H101.401V4.74422C101.967 4.92268 106.513 4.95513 107.333 4.79424V0.362266C107.88 0.356857 108.348 0.350097 108.817 0.347393C109.273 0.344689 109.727 0.347393 110.167 0.347393C110.337 0.927417 110.349 10.2227 110.186 10.8662H107.403C107.291 9.70078 107.422 8.54073 107.326 7.40908C106.78 7.25224 102.217 7.22791 101.439 7.38069V10.7337C100.9 10.9122 99.4828 10.9487 98.6027 10.8284C98.4634 10.3335 98.4296 1.22622 98.5756 0.38525L98.577 0.383898Z" fill="#4F4D50"/>
<path d="M82.9772 4.47252V6.51951C81.8482 6.51951 80.7585 6.51951 79.6687 6.51951C78.579 6.51951 77.4852 6.51951 76.3373 6.51951V8.69493H83.7289V10.8379H73.4034V0.475903C73.8577 0.317715 82.4539 0.26769 83.3936 0.42723V2.49855C83.1286 2.51477 82.8852 2.54046 82.6419 2.54181C80.8139 2.54587 78.986 2.54181 77.1567 2.54587C76.8889 2.54587 76.6212 2.57291 76.3252 2.58914V4.47388H82.9745L82.9772 4.47252Z" fill="#4F4D50"/>
<path d="M135.689 30.7385H133.263C133.245 30.4316 133.216 30.1652 133.216 29.8989C133.212 28.0263 133.222 26.1537 133.205 24.2825C133.203 23.9242 133.181 23.5335 133.039 23.2157C132.746 22.5546 132.174 22.2328 131.45 22.2206C130.605 22.2071 129.76 22.2139 128.915 22.2139C127.888 22.2139 126.86 22.2139 125.831 22.2139C125.608 22.2139 125.387 22.2139 125.069 22.2139V30.7344H122.636V20.2967C122.777 20.2778 122.907 20.244 123.037 20.244C126.188 20.2372 129.341 20.2237 132.493 20.2359C133.944 20.2413 135.082 21.0619 135.571 22.4234C135.67 22.6966 135.726 23.0008 135.727 23.2915C135.739 25.6426 135.735 27.9952 135.734 30.3464C135.734 30.4573 135.708 30.5668 135.688 30.7385H135.689Z" fill="#E21D39"/>
<path d="M64.5746 10.8392V2.80401C63.8621 2.71072 63.1834 2.76751 62.5101 2.75804C61.8273 2.74858 61.1431 2.75534 60.386 2.75534C60.2792 1.95358 60.3563 1.19509 60.336 0.390625H71.7918V2.73776H67.5329C67.5139 4.16281 67.5261 5.50132 67.5234 6.83984C67.5221 8.15807 67.5234 9.47766 67.5234 10.8392H64.576H64.5746Z" fill="#4F4D50"/>
<path d="M104.539 20.2279C105.655 20.2279 106.75 20.2279 107.845 20.2279C108.577 20.2279 109.308 20.2212 110.038 20.232C111.593 20.2536 112.754 21.0932 113.233 22.5534C113.317 22.809 113.359 23.0888 113.36 23.3579C113.37 25.6874 113.367 28.017 113.364 30.3466C113.364 30.4574 113.343 30.5669 113.325 30.7305H110.814C110.814 30.4439 110.814 30.1992 110.814 29.9531C110.814 28.0346 110.818 26.116 110.813 24.1975C110.809 22.9063 110.127 22.2249 108.823 22.2168C107.338 22.2073 105.852 22.2168 104.368 22.2114C104.149 22.2114 103.931 22.1857 103.612 22.1654C103.946 21.4691 104.237 20.8634 104.541 20.2293L104.539 20.2279Z" fill="#E21D39"/>
<path d="M158.544 30.7332H156.103C156.09 30.4614 156.071 30.2383 156.071 30.0152C156.068 27.8912 156.125 25.7644 156.053 23.6431C155.993 21.8435 157.437 20.1886 159.446 20.2224C161.387 20.2549 163.33 20.2278 165.273 20.2292C165.428 20.2292 165.584 20.2481 165.838 20.2657C165.524 20.8836 165.265 21.4609 164.936 21.995C164.85 22.1356 164.55 22.1991 164.345 22.2032C163.112 22.2221 161.878 22.2099 160.644 22.2167C160.393 22.2167 160.134 22.2167 159.896 22.2829C159.083 22.5047 158.599 23.1334 158.586 23.9973C158.568 25.1398 158.58 26.2809 158.58 27.4234C158.58 28.2914 158.583 29.1594 158.579 30.0274C158.579 30.2505 158.557 30.4736 158.544 30.7345V30.7332Z" fill="#E21D39"/>
<path d="M102.421 30.7547H100.082C99.9371 30.2396 99.902 17.2911 100.043 16.4028H102.387C102.533 16.8963 102.572 29.8326 102.421 30.7547Z" fill="#E21D39"/>
<path d="M119.181 19.5273V30.7263C118.403 30.8412 117.618 30.7722 116.752 30.7682C116.739 30.5126 116.716 30.295 116.716 30.0759C116.713 27.2204 116.724 24.3649 116.705 21.5108C116.702 21.0416 116.823 20.7509 117.269 20.5468C117.785 20.3102 118.261 19.987 118.759 19.7085C118.87 19.6463 118.995 19.6071 119.182 19.5287L119.181 19.5273Z" fill="#E21D39"/>
<path d="M116.755 19.2774V16.384C117.578 16.3015 118.36 16.3124 119.228 16.38C119.228 16.8126 119.255 17.1979 119.214 17.5752C119.198 17.7252 119.068 17.9118 118.936 17.9929C118.26 18.4121 117.565 18.8042 116.754 19.2774H116.755Z" fill="#E21D39"/>
</g>
<defs>
<clipPath id="clip0_633_763">
<rect width="179.156" height="88" fill="white"/>
</clipPath>
</defs>
</svg>
