<?xml version="1.0" encoding="UTF-8"?>
<svg id="Layer_2" data-name="Layer 2" xmlns="http://www.w3.org/2000/svg" viewBox="0 0 1325.08 650.87">
  <defs>
    <style>
      .cls-1 {
        fill: #301b44;
      }

      .cls-1, .cls-2, .cls-3 {
        stroke-width: 0px;
      }

      .cls-2 {
        fill: #e21d39;
      }

      .cls-3 {
        fill: #4f4d50;
      }
    </style>
  </defs>
  <g id="Layer_1-2" data-name="Layer 1">
    <g>
      <g>
        <path class="cls-1" d="M88.6,578.25c24.02-24.02,48.29-48.31,72.33-72.35,24.21,24.23,48.55,48.58,72.58,72.62-23.93,23.93-48.25,48.26-72.32,72.34-23.91-23.93-48.25-48.27-72.58-72.61Z"/>
        <path class="cls-1" d="M233.68,72.54c-23.98,23.99-48.31,48.33-72.41,72.43-24.12-24.13-48.46-48.47-72.52-72.55C112.73,48.44,137.06,24.1,161.16,0c24.11,24.12,48.45,48.46,72.52,72.54Z"/>
        <path class="cls-1" d="M4.3,325.6c24.12-24.13,48.46-48.48,72.61-72.65,10.02,10.03,20.27,20.28,30.77,30.78-13.71,13.7-27.63,27.61-41.84,41.81,14.09,14.08,27.99,27.98,41.55,41.53-10.45,10.45-20.74,20.75-30.82,30.83-23.91-23.92-48.25-48.27-72.28-72.31Z"/>
        <path class="cls-1" d="M161.51,168.64c24.05,24.06,48.33,48.36,72.37,72.4-10.1,10.11-20.36,20.37-30.95,30.96-13.57-13.56-27.47-27.45-41.67-41.64-3.08,2.74-5.75,5.62-8.54,8.37-2.82,2.79-5.61,5.6-8.42,8.41-2.73,2.73-5.46,5.45-8.18,8.18-2.81,2.8-5.61,5.61-8.42,8.41-2.79,2.79-5.59,5.58-8.07,8.06-10.43-10.44-20.68-20.69-30.61-30.62,23.82-23.83,48.15-48.17,72.49-72.51Z"/>
        <path class="cls-1" d="M161.18,420.82c14.22-14.21,28.12-28.1,41.83-41.8,10.49,10.49,20.73,20.74,30.73,30.74-24.07,24.08-48.41,48.42-72.47,72.5-24.03-24.04-48.35-48.37-72.43-72.45,9.83-9.83,20.08-20.08,30.66-30.66,13.53,13.52,27.43,27.42,41.69,41.66Z"/>
        <path class="cls-1" d="M256.52,325.55c-14.17-14.17-28.08-28.07-41.75-41.73,10.51-10.51,20.76-20.77,31.48-31.5,24.15,24.11,48.51,48.43,72.67,72.56-24.8,24.81-49.07,49.09-73.03,73.06-10.08-10.08-20.37-20.37-30.9-30.9,13.47-13.46,27.31-27.29,41.52-41.5Z"/>
        <path class="cls-1" d="M.23,137V8.12c.22-.15.31-.25.41-.27.1-.02.24-.01.31.04.51.41,1.04.8,1.5,1.26,21.02,21.01,42.02,42.03,63.7,63.7C44.32,94.47,22.63,115.96.93,137.45c-.23-.15-.47-.3-.7-.45Z"/>
        <path class="cls-1" d="M.42,177.01c21.38,21.39,42.97,42.98,64.28,64.3-21.11,21.12-42.7,42.72-64.17,64.2-.63-1.96-.75-125.7-.12-128.49Z"/>
        <path class="cls-1" d="M.08,345.01c21.91,21.92,43.45,43.46,65.08,65.1-.97,1.71-59.9,60.96-64.39,64.56-.1-.03-.21-.04-.3-.08-.09-.05-.22-.13-.23-.2-.07-1.09-.16-2.19-.16-3.28,0-41.92,0-83.84,0-126.08Z"/>
        <path class="cls-1" d="M257.06,72.65c21.68-21.69,43.23-43.24,64.7-64.71.63,1.97.83,125.46-.53,129.92-21.42-21.76-42.83-43.52-64.17-65.21Z"/>
        <path class="cls-1" d="M256.97,409.94c21.69-21.69,43.24-43.26,64.84-64.86-.08-.04.03,0,.11.06.08.06.19.16.19.25.06,42.38.11,84.75.15,127.13,0,.64-.1,1.28-.16,1.97-2.24-1.15-61.01-59.45-65.13-64.55Z"/>
        <path class="cls-1" d="M322.06,306.02c-21.79-21.79-43.33-43.33-64.58-64.58,21.44-21.45,43.02-43.05,64.75-64.78-.48-.26-.37-.22-.29-.15.08.07.17.17.17.26.06,42.47.1,84.95.15,127.42,0,.53-.11,1.05-.2,1.83Z"/>
        <path class="cls-1" d="M76.64,229.34c-21.22-21.23-42.75-42.77-64.37-64.39-.08.17-.05.06.02-.02.06-.08.16-.18.24-.18,41.51-.06,83.02-.12,124.54-.17,1.32,0,2.64.05,3.96.11.16,0,.31.24.15.11-21.49,21.5-43.01,43.03-64.53,64.56Z"/>
        <path class="cls-1" d="M245.85,229.72c-21.57-21.58-43.12-43.13-64.78-64.81-.1.27-.07.16-.02.06.05-.08.14-.21.21-.21,42.62-.07,85.23-.13,127.85-.17.4,0,.8.16,1.25.26-1.35,2.27-61.37,62.52-64.51,64.87Z"/>
        <path class="cls-1" d="M161.05,336.63c10.53,10.54,20.71,20.72,30.55,30.57-10.18,10.19-20.48,20.48-30.52,30.53-9.74-9.75-19.98-19.99-30.57-30.58,9.86-9.87,20.16-20.15,30.53-30.52Z"/>
        <path class="cls-1" d="M88.71,325.31c9.9-9.91,20.15-20.16,30.14-30.15,10.08,10.09,20.4,20.4,30.5,30.5-9.93,9.92-20.18,20.16-30.16,30.14-10.06-10.06-20.37-20.38-30.48-30.49Z"/>
        <path class="cls-1" d="M130.35,283.44c10.36-10.35,20.54-20.53,30.78-30.76,1.92,1.05,26.71,25.45,30.68,30.22-10.26,10.26-20.49,20.5-30.87,30.88-1.54-.81-26.27-25.12-30.59-30.34Z"/>
        <path class="cls-1" d="M233.92,325.71c-10.02,10.04-20.2,20.24-30.41,30.47-2.02-1.17-28.8-27.75-30.69-30.43,10.29-10.3,20.54-20.55,30.57-30.59,10.01,10.02,20.27,20.28,30.53,30.55Z"/>
      </g>
      <g>
        <path class="cls-1" d="M901.6,360.81c1.43.46,2.43.68,3.35,1.09,3.54,1.56,7.33,2.74,10.52,4.84,10.62,7.02,11.17,23.39,1.26,31.39-3.53,2.84-7.54,4.75-11.87,6.04-6.57,1.95-13.31,3.25-20.13,3.34-21.3.29-42.6.35-63.9.44-3.4.01-3.73-.47-3.73-4.38,0-22.47,0-44.94,0-67.42,0-5.18-.03-10.35.01-15.53.03-3.4.48-3.87,3.91-3.87,17.07-.02,34.13-.12,51.2.06,9.06.1,18.09.87,26.87,3.43,4.22,1.23,8.06,3.14,11.66,5.7,9.76,6.95,10.95,26.19-3.53,32.45-1.71.74-3.42,1.48-5.6,2.42ZM843.35,391c.8.13,1.37.3,1.93.29,11.76-.17,23.52-.27,35.27-.61,3.99-.11,7.93-.9,11.59-2.71,3.37-1.66,4.75-4.43,4.63-8.03-.12-3.49-1.9-5.93-5.03-7.49-4.22-2.09-8.77-2.72-13.35-2.84-10.7-.28-21.4-.34-32.1-.46-.92-.01-1.83.16-2.94.27v21.57ZM843.17,352.74c.83.13,1.29.27,1.74.26,10.93-.13,21.86-.13,32.78-.5,3.22-.11,6.47-1.07,9.58-2.04,3.1-.97,4.64-3.38,4.68-6.72.05-3.4-1.17-6.14-4.43-7.29-2.95-1.04-6.09-2.01-9.18-2.13-10.92-.43-21.85-.49-32.77-.67-.77-.01-1.55.23-2.41.37v18.72Z"/>
        <path class="cls-1" d="M876.97,636.51c-.54.24-.93.31-1.15.53-7.17,7.26-16.21,10.89-25.99,12.45-16.15,2.57-32.15,1.69-47.65-4.01-7.17-2.63-13.53-6.58-18.69-12.3-7.61-8.44-10.32-18.58-9.93-29.67.63-17.85,8.91-30.9,25.11-38.57,4.21-2,8.77-3.43,13.32-4.54,11.75-2.85,23.7-3.43,35.76-2.59,7.66.54,15.21,1.58,22.53,3.93,11.96,3.83,20.86,11.1,25.6,22.98.26.66.52,1.31.73,1.98,1.09,3.41.62,4.25-2.88,4.64-5.96.67-11.93,1.26-17.9,1.84-2.88.28-3.24.11-4.26-2.52-2.3-5.93-6.57-9.66-12.6-11.37-12.94-3.66-25.99-3.83-39.09-.91-1.37.31-2.71.77-4.04,1.25-11.68,4.2-17.6,14.16-16.15,26.98,1.02,9.05,5.87,15.41,13.81,19.6,5.94,3.13,12.37,4.42,18.97,4.99,10.31.89,20.45.29,30.16-3.78,3.31-1.39,6.26-3.27,8.59-6.02.79-.94,1.41-2.03,2.44-3.54-1.78-.11-2.91-.23-4.04-.24-5.41-.02-10.83,0-16.24-.01q-5.78,0-5.79-5.96c0-2.24-.07-4.47.03-6.71.1-2.26.77-2.93,3.02-3.01,2.7-.09,5.41-.03,8.12-.03,11.89,0,23.78,0,35.66,0,.94,0,1.89-.02,2.82.04,1.51.1,2.37.9,2.43,2.46.02.59.03,1.18.03,1.76,0,12.82,0,25.65,0,38.47,0,.59,0,1.18-.02,1.76-.04,1.72-.94,2.61-2.64,2.62-4.59.02-9.18,0-13.77,0-1.74,0-2.45-1.09-2.93-2.54-1.1-3.32-2.22-6.64-3.36-10.03Z"/>
        <path class="cls-1" d="M546.19,376.59c-7.25,0-13.83,0-20.41,0-.94,0-1.88,0-2.82-.03-1.5-.06-2.54-.77-2.57-2.32-.08-3.64-.07-7.29-.02-10.93.02-1.58,1.01-2.28,2.54-2.31.82-.01,1.65-.04,2.47-.04,14,0,28.01,0,42.01,0,.82,0,1.65.02,2.47.03,1.57.02,2.37.87,2.49,2.38.07.82.07,1.64.07,2.47,0,12.35,0,24.7,0,37.05,0,.47.01.94,0,1.41-.14,3.13-.58,3.6-3.82,3.65-3.76.06-7.53.05-11.3,0-3.36-.04-3.44-.13-4.52-3.25-1.07-3.07-2.1-6.15-3.14-9.2-.56.15-.84.14-.97.27-7.81,7.91-17.71,11.49-28.35,13-14.99,2.11-29.81,1.06-44.21-3.93-7.56-2.62-14.29-6.61-19.75-12.54-5.79-6.28-8.96-13.78-9.81-22.19-.59-5.86-.46-11.75.92-17.54,3.57-14.98,13.18-24.57,27.13-30.2,8.03-3.24,16.48-4.88,25.06-5.49,12.23-.86,24.46-.71,36.52,1.95,9.09,2.01,17.55,5.33,24.23,12.16,4.19,4.28,7.13,9.32,8.95,15.01.99,3.08.37,4.03-2.94,4.36-5.97.59-11.94,1.14-17.92,1.63-3.16.26-3.25.2-4.44-2.75-2.27-5.64-6.31-9.39-12.15-10.83-4.88-1.21-9.87-2.25-14.87-2.7-7.86-.71-15.76-.44-23.51,1.34-5.22,1.2-10.09,3.17-14.07,6.92-4.4,4.15-6.95,9.25-7.07,15.27-.07,3.72.1,7.58,1.02,11.16,1.7,6.61,6.23,11.18,12.14,14.44,5.13,2.83,10.68,4.31,16.44,4.96,9.77,1.1,19.5,1.12,29.01-1.85,3.72-1.16,7.32-2.61,10.36-5.14,1.88-1.56,3.56-3.32,4.83-6.22Z"/>
        <path class="cls-1" d="M741.13,316.73c11.6-.3,23.03.86,33.99,4.93,11.36,4.22,20.53,11.14,25.47,22.48,8.03,18.45,4.38,45.63-20.72,57.96-7.48,3.68-15.42,5.75-23.63,6.73-13.53,1.6-27.01,1.32-40.33-1.86-7.74-1.85-14.97-4.85-21.37-9.68-9.87-7.46-15.16-17.47-16.38-29.66-.61-6.12-.19-12.22,1.49-18.19,3.51-12.48,11.41-21.13,23.17-26.35,9.05-4.01,18.64-5.65,28.42-6.33,3.28-.23,6.58-.04,9.88-.04ZM740.6,335.41c-6.46-.09-13.59.47-20.37,3.16-14.97,5.93-19.01,19.01-15.45,32.09,2.47,9.05,9.04,14.27,17.62,17.26,5.28,1.84,10.78,2.39,16.31,2.49,8.14.15,16.23-.32,23.8-3.78,6.81-3.12,11.86-8,14.43-15.13,5.04-14-1.8-28.38-15.79-33.34-6.41-2.27-13.07-2.75-20.55-2.74Z"/>
        <path class="cls-1" d="M984.2,529.98c-12.89.13-24.95-1.45-36.53-5.91-5.32-2.05-10.17-4.87-14.15-9.03-3.96-4.14-6.25-9.07-6.84-14.76-.37-3.56.24-4.23,3.73-4.25,6.35-.04,12.71.05,19.06-.04,2.09-.03,3.31.66,3.84,2.74,1.07,4.18,4,6.8,7.67,8.72,4.34,2.27,9.01,3.47,13.84,3.86,7.16.58,14.33.81,21.46-.48,3.41-.61,6.57-1.84,9.28-4.04,3.28-2.66,3.25-6.07-.33-8.38-2.14-1.38-4.56-2.56-7.02-3.16-6.61-1.62-13.31-2.86-19.97-4.29-8.61-1.85-17.26-3.55-25.79-5.68-5.14-1.29-9.96-3.56-14.16-6.93-7.19-5.78-9.69-14.15-6.67-22.36,1.7-4.63,4.95-7.94,9.06-10.46,5.28-3.24,11.1-5.1,17.13-6.27,17.77-3.43,35.51-3.64,53.14.99,5.52,1.45,10.54,3.95,15,7.56,6.08,4.91,8.79,11.47,9.22,19.08.18,3.16-.37,3.68-3.63,3.7-6.12.05-12.24.04-18.35,0-3.01-.02-3.55-.4-3.73-3.39-.22-3.67-2.12-6.12-5.04-8-3.03-1.95-6.39-3.22-9.93-3.33-9.52-.3-19.06-.67-28.48,1.29-1.7.36-3.43.93-4.95,1.76-3.44,1.87-3.9,5.69-.79,8.11,1.99,1.55,4.41,2.84,6.83,3.49,5.55,1.47,11.22,2.53,16.86,3.65,9.56,1.9,19.2,3.44,28.67,5.69,4.62,1.1,9.15,3.08,13.35,5.34,5.48,2.94,9.34,7.47,10.32,13.94,1.06,6.96-.6,13.06-5.69,18.07-3.24,3.19-7.16,5.32-11.34,6.99-10.53,4.2-21.54,5.68-32.79,5.81-.94.01-1.88,0-2.26,0Z"/>
        <path class="cls-1" d="M866.95,529.99c-14.36.09-27-1.53-39.05-6.54-4.38-1.82-8.38-4.25-11.81-7.56-4.5-4.34-7.07-9.6-7.72-15.82-.33-3.2.32-4.02,3.58-4.04,6.36-.04,12.71-.04,19.07,0,2.95.02,3.09.06,4,2.9,1.27,3.97,3.99,6.57,7.54,8.45,4.22,2.23,8.76,3.45,13.48,3.87,7.4.67,14.81.89,22.16-.46,3.52-.64,6.79-1.96,9.5-4.37,2.7-2.41,2.83-5.34-.1-7.45-2.24-1.62-4.87-2.99-7.53-3.67-6.6-1.68-13.31-2.89-19.97-4.32-8.73-1.88-17.49-3.6-26.15-5.77-4.9-1.23-9.5-3.43-13.57-6.57-11.38-8.79-11.05-24.06.75-32.28,5.72-3.98,12.25-5.99,18.97-7.25,16.71-3.15,33.43-3.38,50.09.47,6.26,1.45,12.07,3.91,17.13,7.96,6.3,5.04,9.3,11.67,9.46,19.64.06,2.86-.38,3.36-3.18,3.39-6.35.06-12.71.06-19.07,0-2.64-.02-3.05-.34-3.25-3.05-.32-4.36-2.64-7.31-6.42-8.98-2.76-1.22-5.75-2.49-8.69-2.62-9.39-.42-18.83-.73-28.14,1.18-1.6.33-3.22.79-4.68,1.49-4.15,1.99-4.58,6.27-.79,8.95,1.89,1.33,4.1,2.44,6.32,3,5.46,1.39,10.97,2.62,16.53,3.55,11.36,1.91,22.85,3.25,33.74,7.21,3.82,1.39,7.58,3.26,10.96,5.52,11.12,7.41,10.3,23.84,1.32,31.22-5.6,4.6-12.11,7.13-18.99,8.93-8.82,2.31-17.82,3.15-25.49,3.03Z"/>
        <path class="cls-1" d="M663.75,490.33h-54.2c-.06,1.31-.17,2.55-.17,3.8-.01,9.53,0,19.06,0,28.59,0,.82.04,1.65-.02,2.47-.15,2.47-.74,3.12-3.2,3.17-3.76.07-7.53.02-11.3.02-2.94,0-5.89.06-8.83-.02-2.45-.07-3.06-.72-3.22-3.18-.05-.82-.02-1.65-.02-2.47,0-26.59,0-53.18,0-79.76,0-.59-.01-1.18,0-1.76.08-3.45.48-3.93,3.85-3.95,6.35-.05,12.71-.05,19.07,0,3.22.02,3.64.45,3.65,3.73.04,9.53.01,19.06.02,28.59,0,1.28,0,2.55,0,3.74,2.9.77,49.89.92,54.18.19.06-1.15.19-2.39.19-3.63.02-9.06,0-18.12.01-27.18,0-.94.02-1.88.03-2.82,0-1.74.91-2.58,2.62-2.6.82-.01,1.65-.03,2.47-.03,5.18,0,10.36,0,15.53,0q5.53,0,5.53,5.38c0,25.53,0,51.06,0,76.59,0,1.65.01,3.29,0,4.94-.04,3.94-.32,4.24-4.21,4.26-5.77.02-11.53.02-17.3,0-4.44,0-4.66-.21-4.67-4.53-.02-9.76,0-19.53,0-29.29v-4.22Z"/>
        <path class="cls-1" d="M556.24,473.3c-3.29,0-6.59-.05-9.88.02-1.92.04-3.07-.65-3.54-2.62-1.88-7.87-7.64-11.82-14.92-13.3-12.1-2.46-24.32-2.6-36.39.54-4.82,1.25-9.27,3.39-12.94,6.9-3.53,3.38-5.51,7.51-6.3,12.32-.68,4.13-.5,8.24.36,12.27,1.67,7.87,6.34,13.49,13.46,17.14,4.56,2.34,9.47,3.59,14.52,4.09,8.11.79,16.21.7,24.21-1.2,3.92-.93,7.62-2.39,11.01-4.58,3.47-2.24,6.12-5.19,7.27-9.21.59-2.06,1.73-2.86,3.78-2.85,6.71.04,13.41-.05,20.12.03,3.48.04,4.06.99,2.93,4.47-2.86,8.83-8.36,15.71-15.92,20.97-8.58,5.97-18.27,9.17-28.51,10.55-14.59,1.97-29.1,1.54-43.36-2.59-9.4-2.72-17.95-6.96-24.94-14-9.09-9.17-12.39-20.41-11.17-32.93,1.91-19.55,13.37-31.53,31.43-37.66,13.33-4.52,27.13-5.51,41.11-4.6,7.53.49,14.97,1.56,22.17,3.91,8.8,2.87,16.49,7.41,22.25,14.85,3.14,4.06,5.32,8.58,6.56,13.55.74,2.98.06,3.86-3.06,3.92-3.41.06-6.82.01-10.24.01Z"/>
        <path class="cls-1" d="M1024.71,587.69c0,7.88.13,15.76-.03,23.64-.33,16.96-8.93,28.98-24.88,34.84-8.25,3.03-16.83,4.26-25.59,4.49-11.22.3-22.35-.2-33.12-3.8-7.37-2.46-13.97-6.19-19.06-12.22-5.21-6.16-7.85-13.38-8.13-21.35-.28-7.75-.12-15.52-.14-23.29-.01-9.29-.02-18.58,0-27.88.01-3.91.29-4.18,4.25-4.2,6.47-.03,12.94-.03,19.41,0,3.71.02,4.05.34,4.05,4.03.02,15.41,0,30.82.03,46.23,0,1.88.15,3.76.33,5.63.79,8.22,5.53,13.25,13.09,15.8,7.28,2.46,14.81,2.46,22.34,1.57,2.78-.33,5.6-.92,8.22-1.88,6.23-2.29,10.07-6.78,11.08-13.42.37-2.43.56-4.91.57-7.37.05-15.06.03-30.11.03-45.17,0-.94.02-1.88.02-2.82,0-1.77.95-2.56,2.64-2.58,1.88-.02,3.76-.03,5.65-.03,4.94,0,9.88-.02,14.83,0,4.19.02,4.44.26,4.44,4.35.02,8.47,0,16.94,0,25.41-.02,0-.03,0-.05,0Z"/>
        <path class="cls-1" d="M579.4,575.54v18.62c1.44.06,2.7.17,3.95.17,13.53.01,27.07,0,40.6,0,.94,0,1.89-.05,2.82.04,2.25.22,2.93.85,2.98,3.08.08,3.64.09,7.3,0,10.94-.06,2.23-.75,2.81-3.05,3.02-.93.08-1.88.03-2.82.04-13.42,0-26.83,0-40.25,0h-4.3c-.23,7.03-.17,13.75-.03,20.85,1.62,0,2.88,0,4.15,0,19.42,0,38.84,0,58.25,0,.94,0,1.88,0,2.82.02,1.73.02,2.65.99,2.68,2.63.06,3.88.06,7.76-.02,11.64-.04,1.68-1.06,2.53-2.77,2.5-.71-.01-1.41,0-2.12,0-28.01,0-56.02,0-84.03,0-.82,0-1.65,0-2.47-.02-1.72-.06-2.54-1.05-2.64-2.69-.05-.82-.03-1.65-.03-2.47,0-26.94,0-53.88,0-80.82,0-5.05.11-5.17,5.12-5.17,27.19,0,54.37,0,81.56,0,.82,0,1.65.02,2.47.03,1.72,0,2.65.85,2.66,2.58.03,4.12.03,8.23.01,12.35,0,1.72-.98,2.56-2.65,2.62-.94.03-1.88.03-2.82.03-18.48,0-36.95,0-55.43,0-1.4,0-2.8,0-4.64,0Z"/>
        <path class="cls-1" d="M1067.16,575.54v18.62c1.34.06,2.59.17,3.83.17,13.29.01,26.59,0,39.88,0,.82,0,1.65-.02,2.47,0,3.61.1,3.98.47,4.01,4.15.03,3.29.06,6.59-.03,9.88-.07,2.35-.6,2.83-2.96,3.04-.93.08-1.88.03-2.82.03-13.29,0-26.59,0-39.88,0-1.39,0-2.78,0-4.44,0v20.74c1.25.04,2.6.11,3.96.11,19.18,0,38.35,0,57.53,0,.71,0,1.41,0,2.12,0,3.63.06,4.01.42,4.04,4.09.03,3.17.06,6.35-.02,9.52-.06,2.53-.62,3.03-3.16,3.16-.7.04-1.41.01-2.12.01-27.76,0-55.53,0-83.29,0-.12,0-.24,0-.35,0-5-.01-5.04-.05-5.04-5.22,0-23.05,0-46.1,0-69.15,0-4.12-.02-8.23,0-12.35.02-4.2.24-4.44,4.35-4.45,9.76-.02,19.53,0,29.29,0,17.41,0,34.82,0,52.23,0,.94,0,1.88-.04,2.82.02,2.42.15,3.02.6,3.07,2.89.1,4,.03,8,.02,11.99,0,1.74-.99,2.56-2.64,2.66-1.06.06-2.12.04-3.17.04-18.35,0-36.7,0-55.06,0-1.41,0-2.81,0-4.66,0Z"/>
        <path class="cls-1" d="M733.82,454.82v18.62c1.32.06,2.57.17,3.81.17,13.29.01,26.59,0,39.88,0,.82,0,1.65-.02,2.47,0,3.61.1,3.99.47,4.03,4.14.03,3.29.06,6.59-.03,9.88-.07,2.36-.59,2.84-2.94,3.06-.93.09-1.88.03-2.82.03-13.29,0-26.59,0-39.88,0-1.39,0-2.79,0-4.45,0v20.74c1.23.04,2.58.11,3.94.11,19.06,0,38.12,0,57.17,0,.71,0,1.41,0,2.12,0,4.11.04,4.39.31,4.42,4.43.02,3.06.06,6.12-.02,9.17-.06,2.54-.62,3.04-3.15,3.18-.7.04-1.41.01-2.12.01-27.76,0-55.53,0-83.29,0-.47,0-.94,0-1.41,0-3.6-.07-3.99-.41-3.99-4.14-.02-21.17,0-42.33,0-63.5,0-6.23,0-12.47,0-18.7,0-4.67.14-4.82,4.69-4.83,9.18-.02,18.35,0,27.53,0,17.88,0,35.76,0,53.64,0,1.06,0,2.12-.05,3.17.04,2.12.18,2.68.67,2.74,2.86.1,4,.03,8,.02,11.99,0,1.73-.97,2.58-2.62,2.68-1.06.07-2.12.04-3.17.04-18.47,0-36.94,0-55.41,0-1.38,0-2.76,0-4.32,0Z"/>
        <path class="cls-1" d="M1011.12,383.56c-1.18-.06-2-.13-2.81-.13-13.06,0-26.11.05-39.17-.06-2.35-.02-3.59.63-4.48,2.88-2.42,6.11-5.23,12.08-7.62,18.2-1.01,2.57-2.38,3.66-5.19,3.58-6.23-.17-12.47-.03-18.7-.06-4.74-.02-5.32-.91-3.4-5.17,5.6-12.43,11.2-24.85,16.81-37.27,6.76-14.99,13.59-29.96,20.24-45,1.2-2.72,2.66-3.93,5.78-3.87,10.46.19,20.94.15,31.4.02,2.62-.03,4.06.85,5.15,3.22,12.84,27.85,25.75,55.66,38.64,83.49.3.64.61,1.29.77,1.96.27,1.21-.2,2.13-1.45,2.39-.91.19-1.87.23-2.8.23-6.35.02-12.71-.11-19.05.07-2.82.08-4.22-1-5.22-3.56-2.27-5.8-4.81-11.48-7.25-17.21-.5-1.18-1.05-2.35-1.65-3.7ZM1003.54,366.87c-1.04-4.36-13.63-33.25-15.26-35.21-3.04,5.28-14.34,32.64-14.5,35.21h29.77Z"/>
        <path class="cls-1" d="M734.98,624.54h-45.05c-.47.99-1,2.01-1.45,3.07-2.63,6.16-5.33,12.3-7.83,18.51-.87,2.17-2.1,3.07-4.48,3.02-6.59-.13-13.18-.04-19.77-.05-.47,0-.95.03-1.41-.03-2.12-.27-2.81-1.36-2.11-3.44.33-1,.83-1.94,1.27-2.91,12.18-27.01,24.41-53.99,36.49-81.04,1.23-2.76,2.7-3.87,5.78-3.82,10.47.18,20.95.16,31.42,0,2.78-.04,4.17.94,5.33,3.45,12.67,27.56,25.45,55.07,38.2,82.59,2,4.33,1.46,5.17-3.24,5.19-6.47.02-12.95-.07-19.42.05-2.34.04-3.62-.76-4.52-2.97-2.92-7.18-6.05-14.28-9.2-21.64ZM727.34,608.1c-.73-3.99-13.57-33.46-15.3-35.31-3.6,6.69-14.28,32.61-14.51,35.31h29.81Z"/>
        <path class="cls-1" d="M1085.27,390.46c1.87,0,3.26,0,4.65,0,16.83,0,33.66,0,50.49,0,5.41,0,5.59.18,5.6,5.49,0,2.82.06,5.65-.02,8.47-.08,2.91-.63,3.39-3.6,3.54-.7.03-1.41.01-2.12.01-25.19,0-50.37,0-75.56,0-5.84,0-5.85-.02-5.85-5.92,0-26.47,0-52.94,0-79.41,0-.24,0-.47,0-.71.02-4.92.29-5.2,5.17-5.2,5.53,0,11.06-.01,16.59,0,4.18.01,4.64.45,4.64,4.67.01,21.41,0,42.82,0,64.24v4.82Z"/>
        <path class="cls-1" d="M614.9,390.46h4.8c16.48,0,32.95,0,49.43,0,1.06,0,2.12-.04,3.18.03,2.66.18,3.24.74,3.3,3.5.08,3.53.09,7.06,0,10.59-.07,2.74-.63,3.21-3.39,3.38-.7.04-1.41.02-2.12.02-25.3,0-50.61,0-75.91,0-5.61,0-5.69-.09-5.69-5.72,0-26.59,0-53.18,0-79.77,0-.71-.02-1.41,0-2.12.13-2.88.75-3.6,3.55-3.62,6.47-.06,12.95-.06,19.42,0,2.61.02,3.26.75,3.42,3.39.06.94.01,1.88.02,2.82,0,20.94,0,41.88,0,62.82,0,1.39,0,2.79,0,4.67Z"/>
        <path class="cls-1" d="M481.66,631.56c1.73,0,2.99,0,4.25,0,17.05,0,34.1,0,51.15,0,.94,0,1.88,0,2.82.03,1.53.07,2.44.86,2.46,2.41.04,4.23.04,8.46,0,12.69-.02,1.56-.99,2.31-2.5,2.37-.82.03-1.65.03-2.47.03-25.63,0-51.27,0-76.9,0-.59,0-1.18.02-1.76,0-2.55-.14-3.06-.63-3.2-3.14-.04-.7-.01-1.41-.01-2.12,0-26.92,0-53.84,0-80.75,0-5.1.03-5.14,5.06-5.15,5.64,0,11.29-.03,16.93,0,3.91.02,4.17.29,4.18,4.25.01,21.51,0,43.02,0,64.53v4.84Z"/>
      </g>
      <g>
        <path class="cls-3" d="M694.51,1.45c4.75,1.03,9.49,2.05,14.24,3.1,1.14.25,2.27.56,3.7.93-.32,5.35-2.35,10.08-3.95,15.28-2.19-.2-4.24-.16-6.16-.61-8.32-1.95-16.76-2.1-25.19-1.6-4.15.25-8.38,1.14-12.33,2.45-5.62,1.87-9.32,6.1-10.89,11.79-1.68,6.1-1.79,12.33-.33,18.54,1.44,6.15,5.42,10.23,11.19,11.99,4.61,1.41,9.6,2.39,14.39,2.26,10.59-.28,21.15-1.38,32.44-2.2,1.11,4.03,2.39,8.68,3.8,13.84-3.57,1-6.88,2.22-10.29,2.83-11.84,2.14-23.8,3.1-35.81,2.07-7.57-.65-14.99-2.06-21.91-5.63-6.29-3.24-11.01-7.85-13.67-14.32-5.68-13.86-5.32-27.73,1.26-41.16,4.35-8.87,12.18-13.76,21.45-16.42,4.18-1.2,8.45-2.1,12.67-3.14,8.45,0,16.91,0,25.36,0Z"/>
        <path class="cls-2" d="M464.24,227.38h-17.71v-77.38c1.44-.14,2.73-.36,4.03-.36,40.39-.02,80.79.08,121.18-.07,10.3-.04,20.16,6.26,23.3,15.5.91,2.67,1.49,5.59,1.51,8.4.14,16.56.08,33.11.05,49.67,0,1.32-.25,2.64-.41,4.24h-18.28c-.15-2.12-.4-4.07-.41-6.02-.04-13.18-.02-26.36-.02-39.53,0-1.86.03-3.72-.12-5.57-.5-6.54-5.15-11.58-11.71-11.79-10.3-.33-20.62-.18-30.93-.09-3.01.03-3.84,1.01-4.17,3.97-.15,1.34-.08,2.7-.08,4.05,0,16.22,0,32.44-.02,48.66,0,1.98-.18,3.96-.29,6.28h-18.06c-.11-1.94-.31-3.88-.31-5.83-.03-16.05-.01-32.1-.02-48.15,0-1.35.05-2.71-.04-4.05-.24-3.85-1.11-4.91-4.88-4.94-12.51-.1-25.01-.11-37.52,0-4.2.04-5.07,1.25-5.08,6.35-.04,16.73-.02,33.45-.02,50.18,0,1.99,0,3.98,0,6.5Z"/>
        <path class="cls-2" d="M1097.46,150.45c-2.02,4.19-3.84,8.49-6.2,12.47-.59.99-2.93,1.3-4.48,1.32-9.46.12-18.93.03-28.39.09-2.01.01-4.13.01-6.01.61-5.71,1.82-9.25,5.88-9.43,11.88-.32,10.46-.2,20.95-.09,31.42.04,3.46,1.52,4.67,5.1,4.99,1.01.09,2.03.05,3.04.05,16.73,0,33.47.01,50.2,0,1.82,0,3.64-.17,5.99-.28.54-10.42.19-20.49.25-30.55.06-10.14.01-20.27.01-30.41v-30.7h18.08c.17,1.58.49,3.18.49,4.78.03,32.27.03,64.54,0,96.81,0,1.32-.23,2.64-.4,4.47-1.95.11-3.74.31-5.54.31-26.37.02-52.73,0-79.1.02-3.23,0-6.39-.1-9.29-1.88-4.49-2.76-7.28-6.5-7.29-11.92-.03-14.02-.02-28.05,0-42.07.01-9.53,7.99-21.26,21.32-21.9,16.69-.8,33.45-.2,50.18-.19.29,0,.58.25,1.55.71Z"/>
        <path class="cls-2" d="M1306.11,213.11c.12-2.04.28-3.52.29-5.01.02-9.46.05-18.92,0-28.39-.05-10.03-5.28-15.31-15.31-15.34-16.9-.06-33.81-.02-50.71-.02-1.81,0-3.61,0-6.38,0,2.53-5.38,4.65-9.87,6.79-14.42,1.13-.11,2.13-.3,3.12-.3,19.1,0,38.2-.15,57.3.07,10.47.12,17.94,5.42,22.07,14.98,1.17,2.71,1.68,5.89,1.71,8.86.16,16.73.09,33.45.06,50.18,0,1.14-.3,2.28-.48,3.57-1.35.14-2.5.37-3.65.37-28.23.02-56.46,0-84.68.03-3.14,0-6.03-.61-8.63-2.4-4.16-2.86-6.61-6.69-6.64-11.85-.03-6.08-.1-12.17,0-18.25.14-8.44,5.52-13.86,14.03-13.96,10.82-.13,21.64-.04,32.45-.04,5.06,0,10.12,0,16.06,0-1.28,2.94-2.42,5.29-3.33,7.72-.87,2.35-2.56,2.76-4.79,2.74-9.3-.07-18.59-.03-27.89-.02q-8.48,0-8.49,8.4c0,2.7-.06,5.41.02,8.11.13,3.95,1.17,4.97,5.17,5.24.67.05,1.35.02,2.03.02,18.26,0,36.51,0,54.77-.01,1.49,0,2.99-.17,5.12-.3Z"/>
        <path class="cls-2" d="M699.68,213.13c0-4.24,0-7.77,0-11.3,0-7.43-.33-14.89.08-22.3.51-9.18-6.13-15.42-15.44-15.26-16.9.28-33.81.08-50.71.08-1.79,0-3.58,0-6.12,0,1.96-4.39,3.56-7.87,5.06-11.39,1.05-2.46,2.65-3.46,5.46-3.41,9.29.18,18.59.06,27.89.07,9.3,0,18.59-.08,27.89.03,14.36.18,24.54,10.35,24.64,24.7.11,16.22.04,32.44.01,48.66,0,1.32-.21,2.63-.34,4.22-1.5.17-2.8.44-4.09.44-28.06.02-56.12,0-84.18.03-6.55,0-11.43-2.65-14.21-8.63-.76-1.63-1.12-3.56-1.16-5.37-.14-6.42-.17-12.84-.03-19.26.16-7.47,5.24-13.02,12.64-13.12,16.05-.23,32.11-.06,48.17-.03.29,0,.57.26,1.34.63-1.19,2.7-2.32,5.46-3.6,8.14-.92,1.93-2.82,1.56-4.47,1.56-7.94.03-15.89.01-23.83.01-2.03,0-4.06-.02-6.09,0-5.65.09-6.38.82-6.44,6.5-.03,3.38-.09,6.76.03,10.14.12,3.51,1.4,4.75,4.93,5.08,1.01.09,2.03.05,3.04.05,17.75,0,35.5,0,53.25,0,1.82,0,3.64-.16,6.26-.28Z"/>
        <path class="cls-3" d="M729.1,2.84h20.89v32.25c4.18,1.32,37.81,1.56,43.87.37V2.68c4.05-.04,7.51-.09,10.98-.11,3.37-.02,6.73,0,9.98,0,1.26,4.29,1.35,73.04.14,77.8h-20.58c-.83-8.62.14-17.2-.57-25.57-4.04-1.16-37.79-1.34-43.54-.21v24.8c-3.99,1.32-14.47,1.59-20.98.7-1.03-3.66-1.28-71.02-.2-77.24Z"/>
        <path class="cls-3" d="M613.72,33.08v15.14c-8.35,0-16.41,0-24.47,0s-16.15,0-24.64,0v16.09h54.67v15.85h-76.37V3.52c3.36-1.17,66.94-1.54,73.89-.36v15.32c-1.96.12-3.76.31-5.56.32-13.52.03-27.04,0-40.57.03-1.98,0-3.96.2-6.15.32v13.94h49.18Z"/>
        <path class="cls-2" d="M1003.59,227.35h-17.94c-.14-2.27-.35-4.24-.35-6.21-.03-13.85.04-27.7-.08-41.54-.02-2.65-.18-5.54-1.23-7.89-2.17-4.89-6.4-7.27-11.75-7.36-6.25-.1-12.5-.05-18.75-.05-7.6,0-15.2,0-22.81,0-1.65,0-3.29,0-5.64,0v63.02h-17.99v-77.2c1.04-.14,2-.39,2.96-.39,23.31-.05,46.63-.15,69.94-.06,10.73.04,19.15,6.11,22.77,16.18.73,2.02,1.14,4.27,1.15,6.42.09,17.39.06,34.79.05,52.18,0,.82-.19,1.63-.34,2.9Z"/>
        <path class="cls-3" d="M477.61,80.17V20.74c-5.27-.69-10.29-.27-15.27-.34-5.05-.07-10.11-.02-15.71-.02-.79-5.93-.22-11.54-.37-17.49h84.73v17.36h-31.5c-.14,10.54-.05,20.44-.07,30.34-.01,9.75,0,19.51,0,29.58h-21.8Z"/>
        <path class="cls-2" d="M773.2,149.61c8.25,0,16.35,0,24.45,0,5.41,0,10.82-.05,16.22.03,11.5.16,20.09,6.37,23.63,17.17.62,1.89.93,3.96.94,5.95.07,17.23.05,34.46.03,51.69,0,.82-.16,1.63-.29,2.84h-18.57c0-2.12,0-3.93,0-5.75,0-14.19.03-28.38-.01-42.57-.03-9.55-5.07-14.59-14.72-14.65-10.98-.07-21.97,0-32.95-.04-1.62,0-3.23-.19-5.59-.34,2.47-5.15,4.62-9.63,6.87-14.32Z"/>
        <path class="cls-2" d="M1172.63,227.31h-18.05c-.1-2.01-.24-3.66-.24-5.31-.02-15.71.4-31.44-.13-47.13-.45-13.31,10.23-25.55,25.09-25.3,14.36.24,28.73.04,43.1.05,1.15,0,2.3.14,4.18.27-2.32,4.57-4.24,8.84-6.67,12.79-.64,1.04-2.86,1.51-4.37,1.54-9.12.14-18.25.05-27.38.1-1.85,0-3.77,0-5.53.49-6.01,1.64-9.59,6.29-9.69,12.68-.13,8.45-.04,16.89-.04,25.34,0,6.42.02,12.84-.01,19.26,0,1.65-.16,3.3-.26,5.23Z"/>
        <path class="cls-2" d="M757.53,227.47h-17.3c-1.07-3.81-1.33-99.58-.29-106.15h17.34c1.08,3.65,1.37,99.33.25,106.15Z"/>
        <path class="cls-2" d="M881.49,144.43v82.83c-5.75.85-11.56.34-17.96.31-.1-1.89-.27-3.5-.27-5.12-.02-21.12.06-42.24-.08-63.35-.02-3.47.87-5.62,4.17-7.13,3.82-1.75,7.34-4.14,11.02-6.2.82-.46,1.75-.75,3.13-1.33Z"/>
        <path class="cls-2" d="M863.55,142.58v-21.4c6.09-.61,11.87-.53,18.29-.03,0,3.2.2,6.05-.1,8.84-.12,1.11-1.08,2.49-2.06,3.09-5,3.1-10.14,6-16.14,9.5Z"/>
      </g>
    </g>
  </g>
</svg>