<?xml version="1.0" standalone="no"?>
<!DOCTYPE svg PUBLIC "-//W3C//DTD SVG 20010904//EN"
 "http://www.w3.org/TR/2001/REC-SVG-20010904/DTD/svg10.dtd">
<svg version="1.0" xmlns="http://www.w3.org/2000/svg"
 width="500.000000pt" height="500.000000pt" viewBox="0 0 500.000000 500.000000"
 preserveAspectRatio="xMidYMid meet" >

<g transform="translate(0.000000,500.000000) scale(0.100000,-0.100000)"
fill="#571ABA" stroke="none">
<path d="M3985 4421 c-11 -4 -47 -7 -80 -5 -85 4 -122 -11 -182 -74 -29 -29
-52 -57 -51 -60 0 -4 -1 -9 -2 -12 -10 -27 -13 -267 -16 -1517 -3 -1063 -1
-1443 7 -1443 7 0 9 -10 7 -25 -3 -13 -2 -26 3 -27 4 -2 9 -12 11 -23 1 -11 8
-25 13 -31 6 -6 28 -31 50 -55 55 -59 112 -84 196 -84 56 0 73 5 115 30 49 31
98 90 112 135 11 39 14 3030 2 3030 -5 0 -7 7 -4 15 4 8 1 15 -5 15 -6 0 -11
5 -11 10 0 10 -95 109 -105 110 -3 0 -14 0 -26 0 -11 0 -17 5 -14 10 7 11 7
11 -20 1z"/>
<path d="M2085 3851 c-11 -5 -44 -7 -73 -5 -60 4 -128 -21 -169 -62 -13 -13
-28 -24 -34 -24 -6 0 -8 -4 -5 -8 3 -5 -3 -22 -13 -38 -11 -19 -15 -39 -11
-59 3 -16 6 -569 6 -1228 -1 -719 3 -1197 8 -1197 5 0 7 -3 4 -6 -4 -3 1 -13
10 -23 9 -9 31 -32 47 -51 68 -77 183 -109 271 -75 61 23 113 70 136 122 18
40 18 95 18 1275 0 678 0 1236 0 1239 0 4 -20 27 -45 52 -25 26 -45 51 -45 56
0 6 -6 8 -14 5 -8 -3 -17 -1 -21 5 -3 6 -15 11 -26 11 -11 0 -17 5 -14 10 7
12 -2 12 -30 1z"/>
<path d="M2870 2413 c-92 -59 -118 -78 -114 -85 3 -4 0 -8 -6 -8 -6 0 -9 -4
-6 -8 3 -5 -4 -23 -15 -40 -18 -31 -19 -54 -19 -512 0 -344 3 -480 11 -480 6
0 9 -6 6 -14 -3 -8 -2 -16 3 -18 4 -2 10 -12 12 -23 1 -10 10 -26 18 -35 8 -8
24 -26 35 -40 35 -42 110 -81 171 -88 121 -13 231 72 262 203 8 32 13 948 6
965 -4 8 -7 26 -8 39 -1 14 -7 26 -14 29 -7 2 -12 8 -12 14 0 5 -13 22 -30 38
-16 15 -26 31 -22 35 4 3 3 5 -3 4 -15 -4 -55 11 -55 21 0 5 -7 6 -17 3 -11
-4 -14 -3 -9 5 5 9 1 10 -16 4 -26 -9 -102 -9 -133 1 -11 3 -31 -1 -45 -10z"/>
<path d="M1025 2140 c-4 -6 -12 -9 -18 -8 -15 4 -107 -50 -107 -62 0 -5 -9
-12 -21 -15 -11 -4 -18 -9 -15 -12 3 -3 -2 -20 -11 -37 -23 -45 -25 -60 -29
-398 -3 -211 -1 -308 6 -308 6 0 8 -10 4 -25 -4 -16 -2 -25 6 -25 6 0 8 -4 5
-10 -3 -5 -1 -10 5 -10 6 0 8 -5 5 -10 -3 -5 -1 -10 6 -10 7 0 9 -3 6 -7 -4
-3 2 -12 13 -20 11 -8 20 -21 20 -29 0 -8 6 -14 14 -14 8 0 21 -8 28 -18 7
-10 38 -28 68 -41 98 -42 220 -11 282 71 56 76 58 89 58 468 0 240 -3 350 -11
350 -5 0 -8 4 -4 10 11 17 -52 112 -77 116 -4 1 -13 2 -19 3 -5 0 -7 6 -4 11
4 6 3 9 -2 8 -17 -4 -83 13 -83 22 0 13 -117 13 -125 0z"/>
</g>
</svg>
